<mxfile host="www.draw.io" modified="2019-11-28T14:11:44.173Z" agent="Mozilla/5.0 (X11; Ubuntu; Linux x86_64; rv:70.0) Gecko/20100101 Firefox/70.0" etag="eDyx3xmBgwKwUP72PQtJ" version="12.3.3" type="github" pages="1">
  <diagram id="HX0drLCaa0ztHGQE2M1M" name="Page-1">
    <mxGraphModel dx="1876" dy="868" grid="1" gridSize="10" guides="1" tooltips="1" connect="1" arrows="1" fold="1" page="1" pageScale="1" pageWidth="850" pageHeight="1100" math="0" shadow="0">
      <root>
        <mxCell id="0"/>
        <mxCell id="1" parent="0"/>
        <mxCell id="qvDZvUPAAuCRNHzrGXCy-1" value="" style="shape=image;verticalLabelPosition=bottom;labelBackgroundColor=#ffffff;verticalAlign=top;aspect=fixed;imageAspect=0;image=data:image/jpeg,/9j/4AAQSkZJRgABAQAAAQABAAD/2wCEAAkGBxAQDxANDw8PDw4QDw0PDQ8NDw8NEA8PGBEWFxURFRUYHCggGBolGxUWIT0hJSkrLi4uFyA/RDMsNygtLisBCgoKDg0OGhAQGi0dHyUrMC8rLS8yKy8vLSsvLTAvKy8tKy0tLS0uKy0tLS0tKy8tLS0tKy0tListLS0vLS0tLf/AABEIAMABBwMBEQACEQEDEQH/xAAbAAEAAQUBAAAAAAAAAAAAAAAABwEDBAUGAv/EAEwQAAEDAgAIBgsOBAcBAAAAAAEAAgMEEQUGBxIhMUFhE1FxgZHRFSIyQlRyc5OhsbIUJDM0UlNidJKis8HC0iVjgpQjNUOjw+Hwg//EABoBAQACAwEAAAAAAAAAAAAAAAACBAEDBQb/xAA5EQEAAQICBQkHBAIDAQEAAAAAAQIDBBEFEiExURNBUnGBkaHB0RQiIzJhsfAVMzThQoJTYvFyJP/aAAwDAQACEQMRAD8AnFAQEBAQEBAQEBAQEBAQEBAQEBAQEBAQEBAQEBAQEBAQEBAQEBAQEBAQEBAQEBAQEBAQEBAQEBAQEBAQEBAQEBAQEBAQEBAQEBAQEC6Cl0FmaqYzu3sZ47mt9alFNU7ozYziGOcMU22ppx/9outT5G50Z7pY16eKnZml8Kp/Pxdachd6M90mtTxOzNL4VT+fi605C70Z7pNaOJ2ZpfCqfz8XWnI3OjPdLOtHE7M0vhVP5+LrTkbnRnukzg7M0vhVP5+LrWORudGe6WczszS+FU/n4utORudGe6Q7M0vhVP5+LrTkbnRnukyVbhimOqppzyTRdacjc6M90s5SyYqhj+4e1/iODvUoTExvYXbrAqgICAgICAgICAgICAgICAgICChKDncaMa4aIZp/xahwuyFptYfKee9HpKt4XB135z3Rx9EK69VGuFca6ypJz5nMYdUcBMTAOI2N3c5K7lrB2bW6M54ztVqprq3y0pO3btKs5ocmZyxmlyZnLGaUWi6xm2RZLqOs2xZLrGs2xZLprNkWlLprNkWlLprNsWlCms2RaUabEObocNRGgjkKznnslPknQ4GxzraYgGQzx7Y6gl+jc/uh6RuVS7g7Nzmyn6ejXXhqavolDFzGKCtjL4iWvbbhYn2z2Hj3t3j16Fxr+HrszlVu4qFy1Vbna3IK0NaqAgICAgICAgICAgICAgIKFBpca8ONoqZ85sXmzIWHvpTe19wsSdwKsYaxN65FPNz9QhGpqnyPdLI4vke4ue52txK9NTTFMRTTsiEOTW85M0uSM9YzZ5JTPWM04tKGUcajm202VPdDeMdIUdrdTZPdDflN6QsbW2LE8D3Q35TekLGctkWJ4Huhvyh0hYzltizPBUTDjHSFjOU4tPQddM2dR6CazOqqs5s6pZZzY1WXguvkppmVEJzXsPM5u1juMFRuU03KZpq3IV2orp1ZTfgfCTKmCOoj7mRt7HSWu1Oad4II5l565bm3VNM8ziXKJoqmmWwCggICAgICAgICAgICAgICDw4oInyr15fVRU4PaxRZ5H03n8mtb0ldvRlGVua+M/Zut05xm4e66WbbFBdRzSihtcXcXqivkLIGgMbbhZn3EcY3na7cPQNKr38TRajOruKtWiNqTcEZOqKEAzB1VJtMpLI77o2m1tzi5cm5j7tW73Y/OdXqvVTu2Ojp8D0sYtHTU7B9CGNvqCq1Xa6t8zLXNUzvllNgYNTGjkaAo5yxm9Zg4h0BYDMHEOhAzBxDoCDw6nYdbGHlaCs5yznLEqsBUkvwlLTv3uhjuOQ2uFOm7XTumU6b1yndVLmMM5OKaQF1K51PJrDXF0sRO8E5w5jYcRVm3ja4+bat2sfXT88Zx4o4wpgyallME7Cx40ja17flNO0f+0LoUXaa4zpda3XRcp1qZzYq2RKeqKWbGqkTJXXHNnpidDXMlZ/Vdrh91vSubpCnbTV2OVpG3lNNXYkJpXOc16QEBAQEBAQEBAQEBAQEFqQoIRx8fnYSqTxGJo5BCz/td/BzlYp7fuuWqfdhobLfNTdFLMwNgx9XURUseh0jrF1rhjBpc88gB5dHGtN29FFM1SzVlRTrSnnBODYqWFlPC3NjYOdx2ucdpOu64VddVdWtU51VU1TnLh8Zso+Y90NC1khaSHVEl3R32iNotneMTbcRpVm1hc4zr7l6zgtaM69n0chPjbhGQ3dWSjdGGRAbu1AViLNuOZepwlqP8WM7DladdbV81TMPU5Z1KOEdzbGGt9GO6HnsxWeG1n93UfuTKjhHdDZFi30Y7oOy9Z4bWf3dR+5MqOEd0Jchb6Ed0eh2YrPDaz+6qP3LOrRwjuhn2e30I7o9HtuH60aq2q56iV3rKjNFHCGJwtqf8Y7oZVLjphGIgiqc8DvZmskaeUkZ3QVGbNueZrqwNir/ABy6ne4oY+sq3inqGthqHaIy0ngpjxC+lrtxvfjvoVW7Y1dsbYcvFaPm1GvRtjxhvcZ8BR11O6F1myC7oJLXMcn7TqI4t9lC1dm3Vmq4e/NmvWjdzwhGWJzHOjeM17HOY9p1tcDYjpC69NUTGcPTRlVETG55U8zVdZkzktWvGx1PJflD47fmquN22+31c7SVPwon6+UpYYuU4b2gICAgICAgICAgICAgILMqCD8dP8xqvKN/Dau5hp+DT+c7o2Y9yGlstk1LEUpEyQ0ALqmrI0tDIIzxX7Z/qYudja91KrjJyiKe1vcp2FnQUXBMJElS/grg2IiteQjlFm/1Kvh6c6855kMFa17mc8yIWNV/N3IpXAFjNsikUdZOKVCQP+1jNOKVM8a7i3HdYzS1JewUzNVVkZc4NbbOcQ1t9AuTYJr5E5RGcplwdiVQxRCN9PFO+wz5ZmB73O2kE9zyCyp1Xq5nfk8vcx9+urOKpj6QjPHrATKGrDISRFIxs0QziXRnOILQ7XoIuDr07lZtXJqp2u3gb837WdW+Nk/VKuKGFTV0UM7vhC0sl2XkYS1xtvtfnVS5Tq1TDg4uzyN6qiN3N1SjvKXQiKvMgFmzxMkPji7HehrTzq9hq86MuDs6Mr17GXCcvNyytRK/k6nJx8eP1eX22Kvi5+H2udpOPgdseaWY1zHn1xAQEBAQEBAQEBAQEBAQWZUEIY5j+I1XlG/htXYw8/CpdXD0524aaylNS5TSlrJPHage75VTKehjG/kubiZzr7HLx/7mX0aXK8+81IzY2Od3S5g/SpYecolb0XT7tU9Xm4QBb9Z2IpVUZqTil1WKWJclYBPMXQ0p7kgDhJhxsvqb9I69g2rVXdy2QoYzH02J1KdtXhHX9foknBmLtHTAcDTxhw79zeEkPK91yq81zO9w7uKvXfmqny7m0LQRYjRxbFFXaTC+KVFUg58DY3n/AFYAIng8ZI0O/qBU4rqhbs46/a3VZxwnbH51IvxpxWnoHBxPCQONo52AtsdjXjvXb9R9A3U3M3ocHjbeJjLdVzx6OpwZlLaIg2ogkdMAAXwlmY8/KIJGbyC6hNrhKhd0NM1Z26oy+ubjMZMLvrag1EgDe1DI2A3DGC5AvtNyTfet9ERTGTqYbDU2LepG3jP1d9klkJo5mHvap1uQxRn13Wi/80OJpinK9TP/AF85YGVxnb0b/o1TT0xEfmtuFne3aGnZXHV5uACuRLs5OpycfHj9Xl9ti04qfh9rmaVj4HbHmliNc551dQEBAQEBAQEBAQEBAQEFmXUghLHL/MKryjfw2rqWZ+HDt4Wn4VLTFZmV2mlL2S4fw5vlp/aXPvz77i6Qj409UOaytH31Tjipz+IepStTlEuhomPh1dbiQtus7EUugxJwEK2qDXi8EIEk4+UL9rH/AFEHmaVrrryhUx+I9ntZxvnZHnPYmGsqo6eJ0sjhHFE27jbQ1o1AAcwsFXeXt0VXa4pp2zKKsPY+1U7i2nJpYO9zbcM4cbnd7yN1cZWyKYemw2ibVuM7nvT4d3r3NAzC9WHZwq6rO1390TH9WlSyXpw1mYy1Ke6PR1mLOUGVj2xVx4SI6OHDQ2SPe4DQ5vIL8qhNPBzMXoiiqNazsnhzT1cJ8OpJFVTxzxOjeGyRSssRrDmkawfTdQeeorqt1xVTsmEH4dwU6kqZKZxJDDeNx7+M6Wu6NB3gqxTVm9lhr0X7UXI59/0nnYJU82/JJeSU+96kfz2n/bb1LTd3vO6aj4lHV5rOVwdrSH6U/qYp4edss6F319nmjoK5Eu7MOpycfHj9Xl9ti1Yn5O1y9Lfx+2PtKWI1QebXUBAQEBAQEBAQEBAQEBBZl1IITxxH8QqvKN/Dar9urK3D0ODj4NP5ztTmKNVxeilLuTIWwczys/tqpXVnObz+k/356oc1lUberg+r/wDI5R19V0tDx8Krr8nG8Gscq7MQlHJfRhlG+XvpZnm/0WgNA6Q486RVm83pivO/FPCPvtazKvXOPAUgNmkOnlHHpzWc3dnlA4liaspWtCWY967PVHn5I+EanFb0GRZTioyeXBM2ckr5L8IOlojC43NPIY2E/NEBzRzXI5GhQl5XTNmKL+tH+UZ9vP6tRlZpAH0tQNZbLE87TYhzPW/pUqJWtB15xXR1T6+TgFtzd7JJWSX4Cp8sz8MLVc3vN6b/AHKOrzW8rXcUnjzey1TsztZ0J81fVCOlbiXfdRk5+PH6vL7TFrxHydrlaX/j/wC0faUsRqk8yuoCAgICAgICAgICAgICCzLqQQ3jaz3/AFPlG+w1T5TKMnpcDHwKfznavg1pquL0QlbJwLYPb5Wb2konOM3ndKfyJ6oc7lObeqh8h/yOWm9VlLpaG/aq6/JyPBrRyjsQlHJ1IDQho1xyzNPKTn+pwVqzVnS8xpemYxOfGI9PJz2VGkPuiCfvXwmK+wFjy633/QoX5ymJdHQdcTbqo4Tn3x/TjMxQi47bw5i2RcZWntW2LiSSsk9M5tNPKRYST2ZvDGgEjnJHMp55vMadrib1NMc0feWPlanGbSRbS6aTmAaP1ehSpbNA0Tncq6o/O5HS2ZvQ5JKyS/AVPlmfhha697zWnf3KOrzeMrXcUnjzey1St72dB/NX1QjpWYl35dPk5+PH6vL7bFi/PudrlaX/AI/+0faUsRqm8wuoCAgICAgICAgICAgICCzLqQRJjQz39UeOPYaq1yvKcnqMD/Ho6vNreDVaq4uwk7J8PeLR/Nm9pW8POdDzmlf5E9UNDlHbephP8j9ZVbGVZVR1Ojob9qrr8nK8GqXKOw6jEDCQindTvNmT2zCdQlGoc40coCtYS9lVqzzuTpfDzctxcp307+r+nZ4wYIZWQOgdoPdRvtfMkGp3pI5CVfuURXTk4eExVWHuxXHbHGETYTwZNTP4OdhYe9drY8cbXbR6eRc2rWonKp7Gxft36da3Of3jrhhuCzFbezsBYvTVrw2NpbED/iTOHaNG23ynbh6FYt517lbF423hqc6ts80c/wDUfVMGDqKOnhZBEM2ONoa2+veSdpJub71ciMni712q7XNde+UQY64XFXWPew3hjAhhI1OaCSX87ieYBZiXsdG4WcPYimrfO2fTsjxzaFTzXskl5JvgKny7fwwsVPM6d/co6vNaytHtKTx5/UxZo3s6Dj3q+qPNHYViJegdRk5+PH6vL7TFG7PuuTpj+P8A7R9pSvGqzy66gICAgICAgICAgICAgILMupBFeMjPfk/jj2GrmYivKuXqcD/Ho6vNr8xVKq12Ei5Pz7zI4ppB6Gn8108FOdvtec0tHx+yGpyiM/xoDxxvHQ4daq6RnKqnqXtDT8OuPrDlgxczXdhQs2jQdYI0EHjTXZdzi5jW14ENU4MkGhsrtDJPGPeu9B9C6+Gx1NUatycp48XnsdouqmZrsxnHDnj1jxdRLEyRua9rXsOtrgHtI5DrXQmImNrkU1VUTnTOUsBuL1EDf3JT38kwjotZQ5G30YWJx2JmMuUq75Z73MjZclscbRpJIY1o9QCnsiFeIqrqyjbMo/xwxv4VrqWlJ4M3bLNpGeNrGbt+30qrXiInZS9Ho7RfJzF29v5o4fWfRwrmKVFbv5rDgrNNWbKTMkzfetQeOqI6Io+tZl5bT371Ef8AXzliZW36aNv1p3RwQ/NSobdBR+5PV5o/C3Q70uoyc/Hj9Xl9pixc+VyNM/x/9o+0pXjVd5ddQEBAQEBAQEBAQEBAQEFmVBGOMLffc/jj2QuJi6srtT1OB/j0dXmwQxUpqXIdrk+m7SeHaHtkHI5ub+j0rqaMrziqn65/nc4emKPeor+mXd/694/0hdFFMB8E8tdua+2npa0c6aUo9yK+E/f+8mND3Yi5VRPPH2/rNxjWrh6z0EqliazGbw6NZipKJX6TCNRBoimkYNjQc5n2Tcehb7eIuUfLVMNdzD2bvz0xP3797KdjRXWt7o5+Chv7Ksxjr3S8I9GmNGYToeM+rU11ZNMbzSySbQHuJaDubqHMsTeqr+ac1u1Zt2tlumI/OLCcxbaam7NZe1WKKkoYsoVuitKEu5PaEw4PizhZ0pfORq0OPafcDVvh43S16LmKqy3Rs7t/jm5DKnVB1ZFEP9KG53Oe4m3Q1p51spdfQlvKxVVxn7f+uOW2HXl1GTn48fq8vtMWLnyuRpn+N/tH2lK8a0PLLqAgICAgICAgICAgICAgsyoI5xgj99zeM0/cavPY2cr1X5zQ9PgJ/wDz0fnPLDbGqM1LebZYBq/c87ZD3BBZJ4h28xAPMt2ExHI3YqndunqVsZZ5e1NMb98daQZomSsLHAPje2x2gtI416aqmmunKdsS8zTVVbqiqNkw4XCeLssDiWh0sXeuaLuA4nAevVyal5zE4C5anOI1qePr+ZPR4fSFu7GVXu1cPRrBGqGa5rKOiUmdZafEpRKUVLD41OJbIqWHtWyJbIlZet9NSUMdwuQ0C7joAGknkCs0VJbozl02LOJMkz2y1bDHACDwTxZ824jvW8d9J9K6Fq3VO2djkY7S1FumaLM51ceaPWfBI1fWR08T5pCGxxtLnHcNQA2k6gN6tPM2rVd2uKKdsygvCdc6onlqX6HSvLra80amt5mgDmU6XurNmLNum3TzR/73yx1thKXUZOB7+O6nl9uNYufK5Gmf48f/AFH2lK8a0PLLqAgICAgICAgICAgICAgtSIOIxlp7VGdse1p5xo/ILgaTp1b2fGHf0bczs5cJ/trmRLlyvTUvthWEZrbvAuFXQgRvu6LvbaXM5OMbl0cFj5s+5Xtp+39Odi8LF336dk/f+3TQVDJBdjg4bjq5RsXft3aLkZ0Tm5FduqicqoyJaaN3dRsd4zWu9azVboq+aIkpuV0/LMwsnBlP8xD5tnUtfstjoR3Q2e03unPfKnYqn8Hh82zqWPZLHQjuhn2q/wBOe+Xk4HpvB4fNM6k9lsdCO6D2u/0575U7C0vg0HmmdSz7LZ6Ed0M+2Yj/AJKu+QYFpPBafzMfUpRYtRupjug9sxH/ACVd8sqCmjZ3EbGeI1rfUtkUxG6Gmu5XX80zPWxMK4Zp6Zt5pWtNrhg7aR3I0aefUo1V0075bcPhLt+crdOf15u9F2NmMsla4NsY6dpuyK9y4/LfxndqG/WtcXNaXq8Bo+jCxnvqnfPlH5tc4QrVLoSLZCEu2yY0xMk81tAayMHeTnOH3W9Kjc5nA03c92ijrny9UlRrU88uICAgICAgICAgICAgICC28INHh6i4RtwO2YSRvG0f+4lR0hh5u286d8fkrmCv8lXlO6fyGhjiXm3ampfbEmTXNS4IkyR1npsdjcXB4xoKzGcTnGxias9kshtVMNUr+c53rVinFX6d1c/f7tM2rU76YeuyFR84fss6lP27EdPwj0PZ7PR+7w7CdR86fsR9Sz7dien4R6MxhrHR8Z9Vp+Far50/Yi/ant2J6fhHonGFw/R8Z9WPJhmr+ePm4v2rMY7EdPwj0bYweH6PjPqxJsN1nz7uZkQ/SpRjL/S+3o3U4LDdDxn1ayswpVuFnVM1uJrywfdspxiLlW+qVq3hcPTuojuz+7Rys0knSTpJOslbaJXYljyBXbcpZsZ4V23LKjGkkNAJcSA0DSSSbADet8IVTERnKX8UsE+5aZkRtwhu+YjbIdYvtsLDmWqqc5eLx2J9ovTXG7dHV/e90LAoqj2gICAgICAgICAgICAgIKEIMaeO6DSVVFY5zRyhcnGaP1pmu1v549F+xi8o1a+9ZbGuRNExOU7FzXz2wuCNMkdZ64NZ1UdY4NNU1lDGmTMVLTo1jJOKll8aZJxUxpI0ybqamHNEpQ301NfPGttLfTU1tRGrNErFNTBkCu25bYWY6Z8jgyNjnvOprBc8u4b1etyxXcot061c5Q73FLFTgCJ57On7xo0ti59rt+z0rbVVnseY0hpOb/w7eynn+v8ATtoWWUHIZAQVQEBAQEBAQEBAQEBAQEBB4c1Bjyw3QYclKtddqiv5ozSprqp3SsmEhV5wFmebLtbIv1nBu3KH6da4z4ejPtFRmO3J+nWuM+Hoe0VfRTgyn6da4z4eh7RX9FDCU/TrXGfD0Z9pr+jwaVY/TbXGfD0S9rr+jw6hvxp+m2uM+HolGNuRzR+dq27BTTtd0jqT9NtcZ8PRKNIXY5o8fVZfgJh2v6W9SlGj7Uc8+HonGk70c0ePqsuxYiOsyfab1KcYO3HH87E/1a/HNHdPqrFinTXuWOd4z3W6BZbqbNFKFWlcVO6rLqiG5osGsjGbGxrBxMaG35bLbkpXLtdyc65mZ+rYxRWRrZDQg9ICAgICAgICAgICAgICAgICDyQg8FiDyYkHngQgcCEDgQgcCEDgQgcCEDgQgcCEFeBCCoiQewxB6AQekBAQEBAQEBAQEBAQEBAQEBAQEBBSyBZAsgWQLIFkCyBZAsgWQLIKoCAgICAgICAgICAgICAgICAgICAgICAgICAgICAgICAgICAgICAgICAgICAgICAgICAgICAgICAgICAgICAgICAgICAgICAgICAgICD/2Q==;" vertex="1" parent="1">
          <mxGeometry x="670" y="62.5" width="308" height="225" as="geometry"/>
        </mxCell>
        <mxCell id="qvDZvUPAAuCRNHzrGXCy-17" value="ASYNCHRONOUS TASKS" style="edgeStyle=orthogonalEdgeStyle;rounded=0;orthogonalLoop=1;jettySize=auto;html=1;exitX=0;exitY=0.5;exitDx=0;exitDy=0;entryX=1;entryY=0.5;entryDx=0;entryDy=0;" edge="1" parent="1" source="qvDZvUPAAuCRNHzrGXCy-8" target="qvDZvUPAAuCRNHzrGXCy-15">
          <mxGeometry relative="1" as="geometry"/>
        </mxCell>
        <mxCell id="qvDZvUPAAuCRNHzrGXCy-33" value="Master/Replica" style="edgeStyle=orthogonalEdgeStyle;rounded=0;orthogonalLoop=1;jettySize=auto;html=1;exitX=0.5;exitY=0;exitDx=0;exitDy=0;entryX=0.5;entryY=1;entryDx=0;entryDy=0;" edge="1" parent="1" source="qvDZvUPAAuCRNHzrGXCy-8" target="qvDZvUPAAuCRNHzrGXCy-10">
          <mxGeometry relative="1" as="geometry"/>
        </mxCell>
        <mxCell id="qvDZvUPAAuCRNHzrGXCy-34" style="edgeStyle=orthogonalEdgeStyle;rounded=0;orthogonalLoop=1;jettySize=auto;html=1;exitX=0;exitY=0.25;exitDx=0;exitDy=0;entryX=1;entryY=0.5;entryDx=0;entryDy=0;" edge="1" parent="1" source="qvDZvUPAAuCRNHzrGXCy-8" target="qvDZvUPAAuCRNHzrGXCy-9">
          <mxGeometry relative="1" as="geometry"/>
        </mxCell>
        <mxCell id="qvDZvUPAAuCRNHzrGXCy-8" value="&lt;div&gt;Web Tier:&lt;/div&gt;&lt;div&gt;&lt;b&gt;Django + Python&lt;/b&gt;&lt;br&gt;&lt;/div&gt;" style="rounded=0;whiteSpace=wrap;html=1;container=1;" vertex="1" parent="1">
          <mxGeometry x="325" y="310" width="120" height="60" as="geometry"/>
        </mxCell>
        <mxCell id="qvDZvUPAAuCRNHzrGXCy-9" value="&lt;div&gt;Cassandra&lt;/div&gt;" style="rounded=0;whiteSpace=wrap;html=1;" vertex="1" parent="1">
          <mxGeometry x="38" y="145" width="80" height="40" as="geometry"/>
        </mxCell>
        <mxCell id="qvDZvUPAAuCRNHzrGXCy-10" value="PostgreSQL" style="rounded=0;whiteSpace=wrap;html=1;" vertex="1" parent="1">
          <mxGeometry x="322" y="220" width="123" height="40" as="geometry"/>
        </mxCell>
        <mxCell id="qvDZvUPAAuCRNHzrGXCy-12" value="Asynchronous Tasks in the Backend (notifications to person whose photo is liked)" style="rounded=0;whiteSpace=wrap;html=1;" vertex="1" parent="1">
          <mxGeometry x="135" y="370" width="120" height="100" as="geometry"/>
        </mxCell>
        <mxCell id="qvDZvUPAAuCRNHzrGXCy-13" value="Other Services" style="rounded=0;whiteSpace=wrap;html=1;" vertex="1" parent="1">
          <mxGeometry x="500" y="287" width="120" height="190" as="geometry"/>
        </mxCell>
        <mxCell id="qvDZvUPAAuCRNHzrGXCy-14" value="memcache" style="rounded=0;whiteSpace=wrap;html=1;" vertex="1" parent="1">
          <mxGeometry x="37" y="210" width="80" height="40" as="geometry"/>
        </mxCell>
        <mxCell id="qvDZvUPAAuCRNHzrGXCy-18" style="edgeStyle=orthogonalEdgeStyle;rounded=0;orthogonalLoop=1;jettySize=auto;html=1;exitX=0.5;exitY=1;exitDx=0;exitDy=0;entryX=0.5;entryY=0;entryDx=0;entryDy=0;" edge="1" parent="1" source="qvDZvUPAAuCRNHzrGXCy-15" target="qvDZvUPAAuCRNHzrGXCy-16">
          <mxGeometry relative="1" as="geometry"/>
        </mxCell>
        <mxCell id="qvDZvUPAAuCRNHzrGXCy-15" value="RabbitMQ" style="rounded=0;whiteSpace=wrap;html=1;" vertex="1" parent="1">
          <mxGeometry x="38" y="320" width="80" height="40" as="geometry"/>
        </mxCell>
        <mxCell id="qvDZvUPAAuCRNHzrGXCy-16" value="Celery" style="rounded=0;whiteSpace=wrap;html=1;" vertex="1" parent="1">
          <mxGeometry x="38" y="370" width="80" height="40" as="geometry"/>
        </mxCell>
        <mxCell id="qvDZvUPAAuCRNHzrGXCy-20" value="&lt;div align=&quot;left&quot;&gt;&lt;b&gt;Server Instance:&lt;/b&gt;&lt;/div&gt;&lt;div align=&quot;left&quot;&gt;Storage&lt;/div&gt;" style="rounded=0;whiteSpace=wrap;html=1;container=1;align=left;" vertex="1" parent="1">
          <mxGeometry x="78" y="600" width="222" height="70" as="geometry"/>
        </mxCell>
        <mxCell id="qvDZvUPAAuCRNHzrGXCy-25" value="Consistent accros data centers" style="text;html=1;strokeColor=none;fillColor=none;align=center;verticalAlign=middle;whiteSpace=wrap;rounded=0;" vertex="1" parent="qvDZvUPAAuCRNHzrGXCy-20">
          <mxGeometry x="146.8615384615385" y="28.63636363636364" width="71.72307692307693" height="12.727272727272727" as="geometry"/>
        </mxCell>
        <mxCell id="qvDZvUPAAuCRNHzrGXCy-21" value="&lt;div align=&quot;left&quot;&gt;&lt;b&gt;Server Instance:&lt;/b&gt;&lt;/div&gt;&lt;div align=&quot;left&quot;&gt;Computing&lt;/div&gt;" style="rounded=0;whiteSpace=wrap;html=1;container=1;align=left;" vertex="1" parent="1">
          <mxGeometry x="77" y="690" width="223" height="80" as="geometry"/>
        </mxCell>
        <mxCell id="qvDZvUPAAuCRNHzrGXCy-26" value="Driven by user traffic, as needed basis" style="text;html=1;strokeColor=none;fillColor=none;align=center;verticalAlign=middle;whiteSpace=wrap;rounded=0;" vertex="1" parent="qvDZvUPAAuCRNHzrGXCy-21">
          <mxGeometry x="155.34055727554178" y="34.666666666666664" width="58.68421052631579" height="10.666666666666666" as="geometry"/>
        </mxCell>
        <mxCell id="qvDZvUPAAuCRNHzrGXCy-31" value="Master" style="shape=cube;whiteSpace=wrap;html=1;boundedLbl=1;backgroundOutline=1;darkOpacity=0.05;darkOpacity2=0.1;" vertex="1" parent="1">
          <mxGeometry x="338" y="140" width="47" height="70" as="geometry"/>
        </mxCell>
        <mxCell id="qvDZvUPAAuCRNHzrGXCy-32" value="Replica" style="shape=cube;whiteSpace=wrap;html=1;boundedLbl=1;backgroundOutline=1;darkOpacity=0.05;darkOpacity2=0.1;" vertex="1" parent="1">
          <mxGeometry x="394.5" y="140" width="47" height="70" as="geometry"/>
        </mxCell>
        <mxCell id="qvDZvUPAAuCRNHzrGXCy-50" value="" style="rounded=0;whiteSpace=wrap;html=1;container=1;" vertex="1" parent="1">
          <mxGeometry x="1290" y="342" width="76" height="140" as="geometry">
            <mxRectangle x="1050" y="440" width="50" height="40" as="alternateBounds"/>
          </mxGeometry>
        </mxCell>
        <mxCell id="qvDZvUPAAuCRNHzrGXCy-48" value="" style="shape=image;verticalLabelPosition=bottom;labelBackgroundColor=#ffffff;verticalAlign=top;aspect=fixed;imageAspect=0;image=data:image/png,iVBORw0KGgoAAAANSUhEUgAAAQMAAADDCAMAAACxkIT5AAAAwFBMVEX///8xYZIAAAAzY5PW1tYpXI8uX5Hr8PX8/PwVFRVISEhXe6Sfn5/Hx8f39/cjWIxegKfz8/NSUlJqi67k5OTg4OCEhISVlZU8PDz09/rPz88JCQkiIiL09PQQEBAaGhpfX18uLi6lpaW1tbV+fn7AwMA2NjZvb28pKSmNjY1paWkZUojN2ORMTEywsLB3d3e+zNuqvdBBbpvf5+5+mbgASoOZr8e8y9rL1uKluM2KpMAATIWCnbuVrMVKcp0AP3wDrh/LAAAcwElEQVR4nO1dCXeiyhJmB1dEQUWNC+5C3DDucf7/v3pV3aCAYJJJ5oaZl++ce24mtsb+qK6tq6sZ5gc/+EE6oCjKG7/4iwBf/Y1vr4T+d/t1UW/Mrfx0WsvPC3rxb2TAn7hSLBavJETYIP8qajqB9nQdpQv96SzbynBXtFv1ca1gaMw9V6kFflF4jn2rNq0OqtWa1S809CJ5RQmMKRr92mBWLj9ny+XuYpovCEXGmFefe00uBplRN99g/hoWirq1qGciU6h3q5agFf0xWqFav5tnvdyOm/4N5bz+nRN7N4rD8f3sKEblxZyItNbvth5Ottmql8cDxKKbbQUE49lKPwvavByaS7vdDot253laGN5Iard6o3q93pt0vGHNUXdgFTSiSCiKRa1RW5R90kZz7bsn+RiFrj+5SXlcy/eHiH6+VgUtd/ewJ7A8hg3BMHRDEArDPAwq1/oGWfFKQJWSn7TGfOZ9RLnxbfN7B/Let6xXQY0HLJqiPGlGwZoF1d2sb2gRS/GkBX+jKKZpBo3Jk1DtUfLyqdWM+pgSME1+Tqj3yaDug2epuPvd4Vgp5dbrS6503u72rj9nLZ+lBKZUKzxRTTC4fj3FlF3XcVzZDD42vVDtcJa3pk13vzoctofVznHN6/tW/K8X21YpbPukriuvjvcZepX8lazxn8zpg9CIKngWyD8Ueb+tXFiYAEBl15fK686R/VlqhCbTPVR4nKJN/1uXjjuPCGWVsyWeBfAAVhJh2ProvUh1TjuNSmEQkFF3m5PwOYoSQhTJA+Vzm+1evo53NmscwUo4VQnnCVhvVnSEe4Y3sB7wB0m1+Y1LXtPImusV/vs5vgELv9eCiLh8ZnH69LvfJgGTtMV1ZUWEWt5ItsiGwONEgYazjCMU52KHX2dFld0Qhoo1IglpWw4CauwuoWBFZsdHJkB/IamnA85wyceOIVTZ4pE8b3njrYfbJ4in9ZL8OcJ4PV2KUcGVUEddoBxg/SfjdMDhW/HBGF601ytc+ubWFqM0qeIWX1KIJHRTZSIF/Ep9+EE5Rh5eZAobGGO+/pJ46QEJvHoqEVHYre9IkOwKeSmPfzH/nXOOArVUGX9Y2Y8mp+bw+28fjfFmql52+HH7l3uBsUsoCUX8k6MUrQYd4r3MEOLa5cPpSbYDg1enNynABXF6xanueTUiCRL/UkLNSGxx7ZsnHgAK5gwUopmLfuMQyEpw14/0RZCwMyFBFKOv8KcKvmJ5fzQdII9kDmJwsB9RIK5hJZiVh2OCU7U3ONWVGlUwEm+/gjY0UA2nxj42IFSawNKUcw8fsf3KvHMl+G8gkvB6v75EcQ8vwF/tpMZbnHt2aqc+mp8oohi8cyV4JODiUSpRZwlE5Ah/bubZolRgRs2UuXkk5jyZ0PZuPo8g/doycbzx6sWkCiEt1lHBtNAQtN3l0TOWVDAKcukjYoBeI/qFOzGiEnhRAtNQSJFh0DCCAeW0FB/5BjYq85Ua6yAnQ+VhASmvd9KDVlZop4cDdBLLGiqvR/Oz0UsuPbSdsW9D4yDzUQNpg1I0OunhYIgRY/GNCYpreHKuemfs34JkrxiUn8hH27BGjFZ6OECzMAU9/VDl06Vw+igFQB6sBuXOqziBK21M0qMTUT9boL6luwAnyMER1vXmQ1bBny68k9mdwp/ty4H13ZP3YFE77UaTIiGoOzQcH14KZL4Oo0SdBF8npsU/gGihSTh4EDVLLOj3/ccMowdeRbW4C3mLkg0fJzS5TFr8xDwJGpn9Aw4galYwsP4dDgDLiGcBZoL6B720xAvAQacA7sEDhcerFeDgpg74d5tIHIjxprINmgb1IhNdnE1LAuE9HNhbElnTf0mi+MiduoHkYXGDASTfCaSeeBXzKFM/g5kCgE7sDJGDxLUA0S6KM3oHmDoWeZ4X1Td9BQlz7ccD4EiC7tti4O0zjZmqackoWu/RB+ghnVjVVi+b1d4FrCr8w6QTr6qV/W3ziWGOAW1CnM56etwDXJdt4MB5ZBd4V2H2v9TS1r09OfMoPRAFu+SE/8wt5ORJKKVR8UsH+r5/kMyBuIa5H9Z0E+lWkLNKdCl4m2aWcZQnC4FwROQdEqakxiwwjaufmCgF6gVmJNNtNEV2l7udS/5xSMq6iCQDbTqVC+iONb+RlSAHKmZVgfpy8dH3+i+hvxkvwFP1Nxrd3eYinn79erngPgoounjZsTG17pZe+FLlooqnHOHg9nFnoLIKKvE7px1CccRxY4wbE2Nn3q5QDpzjRbVF0IvnCv+CccAyXg7EtYmuNXuQTVPeqBBAK8r5phMxlsREbmrUAcN0af7g/IgDXNTOWbRVcPIu8FQV9/UlObGkniFEOJNMGsNU1NNRUQK2UZLgnQaYhbR4SIAq3fE5PFgLyIHDUxVol4haVCqYYDzH+s/4oOWLmsP08UFkX/Cfpau6IV7isMNl0+IhMdQwgKPosEmGgeqDih//njAtwji5tYwxRMx7JBVsnyuy6um8Lb1I7GmPezM+BzxKCVNLT+CMaHRwi+VBTpVycHVyRH7rurucyDoJsSSx/46K8aENSpPs0d18ZV4FDovpUgeMngXDANKapOQxbAQVsL0GFJLKr0WRJxLPSzFq0ZMD+gpEiS4ml/0PYzHPqqcoYELgHnBXAb8vUSmKF/SRXm6koC+BgZTCxO5NYcZF9h88T6zEwScYlYuCScxxWoIFAojgehrJnCdxgH7i6iVCEcTEClOJ5eAV3EPfZIAUmYzyeuXg1w6MxpgsvxShwHFNAZaslKQUJYwXdi+R34owNyZOeHi1grbRf0UtgS09+xyIGEnrvVRZRoCWoRHDfdlIWA7ufgua8mDf16RQ6fdNBjLCKBufA2Ja520u+92zjmCEofxNepM4iG6i4y7sMoYDmjP1rSHhwLzKAcTNCmqg1MTNHhYcNyuGQ/x3yAGLWQUn1picDoFNBVwLVw4kDL+MEdcSvnvSEQxp9ezuY3JAdszcWB2iki0Z25MD1Ae+TlSPJknfLVITM3owvBRCUrmZeomVA8ywubFvkHiyGMjHQYABdsGzjehCKuggpcsqALRn3PpTkuqRoj5SiIP4d2ASFvQg5YCXfcOLARfDCB2ulaJYgQKD+S6YswQvyfOV4zmI340ncZHjCQXRnVTE0K/CCs3Fd0/5HhZ4CBruBiVwsAHX7n63MVkfgFZckgIuOu4aL0i4A4tSlzaNCBAmJHRMUAgkX6LchxPJdsHziN1f5B8vS9/5UDHxAoR3n757xvfwFUJ85R3/csAtlmi+8YF/gARh8iBHPg/zB26OcLAHB6mcQo2IGOCmD+q9eA52wQSAj0Q/0RcEDK0lj0KScUJvCXO4qQoZrwAPYSSQjZa4CRFhvpurWlFQSyQFmxhAm2gaeD+XJmEypThIT/lJGFqTy4CAyncPm3KwD28Yek8aY+fkCh6yT7sXpRsHZJtR6HGZFGpEgAKLdHA16e+UA9yEZONyKIQiWpgHHwgcmGS/EdMKmL0cpPTYMyjr7FNM9RTlYHf1+gJAF2CXXJPgZWJFETlAOQBPCwRuQna5UwlMKhbiZsr6dqEUWSYnrF9OTsizNL3MQKDwgjv3JZVsvExJiPrNk00A7nnUEnaO+NNZufeRXly0eI/qc1SewTUkohjJOXsN/9LrHJeWApx71NBzwfr9GDkg+43LcMyklphApjQWEjoG4GOfSACF9XgYMXa/d56PAGa71cAqg7jFgB6hyYYmjBnyxP1GfwxqAJNUJy/JGR69xbXSqg0QLeq+xe0y8FieGA4cyd6xw75Rk0OKLY4lrFlG+4raYJFCN9mDgkarDK5iXDEqDX/lYGit4uzeKtr03ocbkxfcmdPbXCedvoGHQobLGGjM4iJB8kB3L9ekqyS5RN095sB7H4NF8Q4N0dO1qxCFVibbTWb8jgEeZrqdyyF5Uubwdv0yySMASriYgOVJakpP4gGW4bmYVIppbxQ8AnrynvyJ1l2+XadITkExOwyvMGBMZ6RwQwMWQwFjhlibb5Nqgq0IkSDPknXuPDz/5EHCRAuzQyOJmdvUpdAiwJgBi3LiU+wicfMYZyPaqkQKDONrD6JQ114dD27t+nZRMwrzWr6QttwyrQnAyH6pxu43iSKpOzD3r2v1F/54d4Y1HvSIH1lq7Zo1t6xadVweYQOmTDV9dlKrExchwfMhziKBYmJPDGd9kd6zGkQSWJDjMgHQdlLpqcryoKDtwm3A2A1oFTNnDEqvZ91MWd4fxbdkQbJLO7IY5tfuQpPnQX7et0ZcmioUr8DUqhCozg5SwKNuU7rdvhZcxc5bhz7JvhIBtmCzrH5B0OkKMLDFjpU6d6E4I5kU3FaLCLkookYsgqA0s4P+8Obs7R+7y2TTDbyp0J/x5g0KojlPXzqlD+KJgsBHny719wa+OOOmsXkgvVEOd1twwZWAwRbYkssxyALoE/xfPl0dEHygr4h6Kuwn8WTrjFHyPgUoK/Lm1wuWbsp88lkwst0KduZFPfFevbvrLA+bCq4rzFikcLuJbjjhEfhw0eoLMW9zvzVgF5/e0QZqsEPMo/hZPcNIsmkhYlcdhGT/ujj4cfk0nfkOQqe5VWYfLEm38WlejdtkgEqRxAokUbx9oBUxulRoeQt2ixJF0bZztDdOP1U9IEIAQZgIWGsVKDMnjkFjRBh4tgQkZE9O85AcyfaRHGCixbZFCtV+OeWopWSsDD02kUqAnzR7CgREPA0ZhR436uYNT4svaUbd3ioPOZCQA+WYW695fn3JVY5Lz1DS/nRpK8e5YsjRfJLDkrnxokQUWLaVv/oz8ool8n8i3T4eyQHZYmBM13Ec1702Gnuaky6U6U0lYL1UC6e7JBNViWOgjXt+NlhxDzmVdMnyKvpfk2u9SYX63R+waIe+lCoDAjyTX0bN71bs0+myR59mQAusZWd3zom0k5Z68jzAZA5oG5kgNGE48Hzm1BUkhUBaBeEP5vJANZhFo94dD6SQE36i/XJZecMfcUCK0KpWQTAEYWhVB92J72LM0xcyBoGFtNxY97xYhfa5y8MP5u5Yuqx5iV/nNktyhgFjh2MyByT5vODuMBqk0D8MAzeDuLLgNYTVpvi1s4QTRXad/XJP+0kqzBCYesgBbj13IwS0unkh1euAQsA12xo0NE3TvRaoXLYQ7L6OP+lTrq494oBuS4AGfK5PWq3WpFfvDvJDI7XmIIwCcYgy9fIzaaxI+uFmqo2AJi8KmAB4fsgBSagWn7m2oQtCoyEYeopNwR0UYXQT3oEypK3HO+XqfCgYhtEYWmPCS/kxB3jqBxbWRPMbTn/3vD4Gveap8Gd0mITptbd2uzXxuoe33pIDCWs3Gi0u+5fN/QrFyHfr9fGcanBFHy56YdVmTWmuPJEDXsLt+UImzTvNH0fDwiby2ezzeDAkeaA3ODiZ5Ej5+Lu/92cQc+0E84SXTpCf8rQv7GtivCCqdFTqssdfB4+D5JhJXdN2tamNDz8Pi+YDEzng7RKITTel2aKvAaz0kRE4tXfPwRmD7nRXnnwSfbpHksgBSUbrHdq4+R/F8C0OsGxbACci9QHS76NBUo/MKqkYRcRalWGKOgD9AQi0KewuaaOJZFCstGdLPgeBZoaXCRTwJHtQpTUN/yqEJjF7+0SzgCnXbrr6HHw1DNo3wYkrcSYcvCpMMVB88i/CGBEXMKmtItlc0Ftc5h82C4z+THtH3B108jlYkkaRk3/YLDBPM7JxnFC6wxOzgJ2g/mGVSMKhLoOtDWLlwG8Q+A9HjYyXQFASNp55PMuIm1b/cMTE0M6LAt5cEWsdca8RO0H9w9ECQ0sIhnFttFm/V2Y/neU2XwgBHIRqMe5EPHoHuOXcxaz0d3/NPwrsNoePOaYHOf+CBWkGl9JjvV8I3EZDT/juEJREzvVhqV/KbqL6euBmLBa2msE22jwr2upRZhTGStHtAn8M2C6ctD2TS/at/5HNV0j5SSEDS+VfdhIJUNjpXYzygbcp+MrWMTEPP+xBbP1vOwcEQxQEmidyV5tKqYJ3ONIbXS3cu/6XUwdXkMvnsnduULFPao5SWYb65aDXf05qoWWvWzOyJVn7f5ACgEZLbXqDhq5pT5puDKflDt2wTmsF5tfjyS9m75W7s3K245ccWf+8RQhAaWSjNVedbuNfd42iKPbHo+v1163y4C+41P0PoCgMa4vZbDyo9Rv6/4km/MEPfvCDr4R/OcUDmKZsvj3qb4TpLg/HTQWwOR72crwZMd3dFoKwUgkGrZwoEYpp/s3WR16VeLzdh0KULpv9/XTcQwmv/vEHsblj6DCIDOyc5bt3/SWQX9UXURJhWjw56KZKrPqS24VZcM/2SWT9QcCFxNp2JTBIvqi3q0H+NpgbW+JttXQ87Jb75W61rfAwW5XdBoV9dVElSbVzdNBy9VqSbKBKer3OWs6J4l/LQcVmJfUYuOBIMWHGrESK/CnkjShKKn8M3O2kyFukxc75J4Pex8GT0Gg0CkEIKXDid3gqchX5pbwBEl789W5WbJjt2Y0O2rIia/sdGN7HgfDcauG5iRt69XHhm3UpdpRUX+++BHbiEUumN8TmRXYV80WXIC/kTCnzbg6yzTag6YPGdOPvPUjlXsS7k24Ih2dZiZ4APgIdpNNCzLt50bsc590cZJrd/pzCsuZWbZzhMt98SdwSjGIl5hso2F+SNBdwURtGF0vg7Sx98d0cRDf+9SrX+a0tD00QviYntIIJHuNe2MECwCcsg84Ut4nvB3UiETn6CAdhzp/GXOZ3doEL7S+qPD+IeENHDBwbTKGJnRJ4f8nHAuUFSfxtOYBfjtq/UxFR+Krqe5SDc9wLbi53qcikjbWdtBIQjiR53et+mwNtTIqoPoov4wAWtFiJi4EU13UhbnBZmOKjGAlv88AehJ/gAKuDZh83DV/GgbMWyaUESTjYpNz/AVYgKEdT+QwHFu2m/UEMv4oDcwNRQCnGOHoA30CNt4s+sNn3Rf48B9d/KVqsTBQ1LVxkXYiW2yrREbdXnoIv3LG9guhHzCVJglxSpTj3IYiSyvPuZ9aCMqW3FAL0/rg+mvRG5Wn48GptVu9N8FBuXqBbp0KhkW9zVaFQGJKBT41pedSb9LID/Lc+HOKus14oaMxTf5yFV2ifBKO/eK6P6uVFP2SINjbLq2Lp4MRlDeAhq2/NDN3I5Wc4AONIHYTi/Hpkk2t3r71+jXEnsE9SxTmT/cROh3TEwb2zwixzHTETmHmTKNk8xxWKY/pbrE7WarezkKPgXqRcgjARQmc2dz4so5Nwrm0lknFU8bq3T3BQmLTpVyzjVsh0Xhhai2yba3t7o1hIl60WDF3Xh9UePX/yNBhlR5n2KJut1wuMgpUlvW6+XxjmZ3i3zrADHCjAQdvocu1ReTZ7bqAN5rh6tQCf08eDoeXAtrRyuEgquDp4NzKf26xc+WYH9hJLSt0fYQsqY/ubPhI5pw5T78JS0PHSyqG3cDUr66m8YpVrLq7PzBjTrXNNexo2uTyoAFCmVrPZXgjepxoDrlybNGuEg16ea+UNRVGKCumgU/OXgDBuhsvz5N0mx2MCCeXBVtebw96bzR4iw+MbGnsFHLx+gIOwK6AM4Um14FmChWx2A99KmNCTZ/pzqIDK6PnNTxu+XdA77XbtpkeLNW7S8Tho9Vq+9wXLpxlwyXFjehBSoaa731Yukm2L9CpwvnIg81m+g4Pdxzholms3VGf1Jr3Lmmk0uedQy75Ci1iLRg++663BAZ5AodO6+gfTaLXhmPM56NzMp0W7TF1R7MY1QpLdJRDBokBIqr3GRNJ71sLqY2uh0+YiIBUB2CQxYuoWpI8qchA8nW+1O/MQB3q2GbloTmhlPA4ynL+KFIjaw10RGxNuFnfsXzFl57C5qDYYzBMIwJ5l7Vg3MgBwoyDCfDcHmQnosSuy5UGfiDGIfPRyJFjwILxGNtzSsah7LRt8DgqdaNEp2AKPg9u5bqFNG8rcAKthEhuqkQ+Tne0FjP7piD3/1ffYhd0H9MHCEK4wDN1bk6C0nyPei9aBB8U8Lbh2eeg1eAy0/bhy0L87mqTU2mTp5wOvWPelqVbyvaWks4yTU/HWIhdmlnvDR4KoSnQ+FS8ghi14ZhHJnHDlJ2rSMqPu1Bo29GJghM+BxWWiUaflr4XbJKdc22qE8eb9tdiwG8w+ZlwfhBMM6fD5ST+RoE9Neggj2vhYWHi9L9r17qB2bV7jcwDaP/o4+x1PDpr+wS1lwHWieoijnpTsBvqFhfEKIl5RXm3aqDEZDkSepc/FTIh5LAd1svSLen/azfaoK9gbe77NTQ46UTmY+xy0gxxky1FkUQ7Av0lKEi1JL6WlyoqXh8YRVCJe6vEFa2ER5aBHGpv4s9Ab/doAe+G0qBftczDH9qch3PRB5nqAb8plEi7aWJ34+FQaOR8IqkC5qOT+s0TgPVm2+3kOChO8ni70K6XFlSOBYFETnv08tM8BNR/B9xUXXFQOQrohjOULK27iHzOES9hXDBZDbNLVx04lF2J+mgMdTGDkzxTauF41XQ8RYdTbTbIafA4gnoj0S8chUQ6EdjRXpeiGgZ/snu6byHmAdY4hI1gGVkxOpsm424Rt/D7LATy76IMC5xkWendUbwTJwWNrIQ7u31nj7vQBo9S5elio8FYq9A/MtSiRK5ruscO+YvTqdHGdZBqUVxAD4kh+lgM08+PQ4wSbiG3WZ5EjaMUoB/BDM9TPYdhp3nMQchYIyHWNyO7Gu6rrHkdMGCvkBiM+MYdwkHw5+jQH6L/XrkkeBSPpJn5piIvHwXgBfk96SSIH6AQo2AKvWfcDTuZp3mqXW55/EOAAF1vhqnEURsg0e5Q5skmyjVnveEUazaI5F/ipdC8J8OdXNgRYdDfq/RwMEl4D/71du4qrMfMSbLDcM8G84bTpJZ0Er5swTA/Gtsb5hv6kCRYmqfst7o4DEA+ud1szQvbaUZzcWyfd7zCYAQHZq0DC5d44yGcIrnhPV7x3zzVRDggJXL0mGLpuDBfNa44RrCZXtuC3oB2NfhfG0PCh+NxsZmtWDR5mcYoJomam1SElyTcfKcgBM4TP7/YxF6M34PM7V2vi4j77qRIurTGdks2K13zzfg1eghoeo7iHtc3eLCtwoJZcORa392EeI/n0QAFPF7Tq2XoPYsvM1A9o5qQVfrbbLdex9rbsz8trmY/aotiYlnuZdrvVK1cFhTqd9/ZwCJ/fHJW73TpwVZ/fVOSeTIXfrBzZNE3FNGV3dYZfqIGtFaBE9McoZMhym1NFcKcl/tX0OZD4SixKr1cS9Hy1+qB2HvOfkw7XbtW7tYCW061xedTKtDMwxUX/li0RquNueeYNLBqNQkNAO6qgn4jLpzGdhsPl4nyRbQG/nfo4XLzsblS8y1JlL7kSfOHShVdVSbRzQXMhb9cQTtsqf6lUNpVSbi0CKaJKajUqvk4M1DSF8Gb0HfyWMJMhzEULp8CLutCAKcIcI1Gydtf7EAdY7UxCNKTQzzei6XtzV7HtyNfmj5G17Z754Bjszs1v3bPt60v5EvmI3+Pgd1DIh8+rKGA+Wx++gc50t5XSmofoB++3vJQ2u/s6O8XcbWAMDPHGLGW0DCyQIC2xsethFY/dKqbK7StxZ/l18Bw/XKaO401sy7rbLfdOcr4AxsCQ3XLpXEuTsBblTz/oNwBGMhxX1Jr/8ck15/KyftMm/lmUr3sRBFbzPz/VLh/fSDT9cRRaXGbhBRXFxqLDdf5/zm1dUcCjS5Nydzwrgx/ULKf3Ss4/CCM/G9E0U3s0+/88t8SQa8b6/fm8X7gz/T/4wQ9+8IMf/OAHP0gz/ge1qNOu8cQ+3QAAAABJRU5ErkJggg==;" vertex="1" parent="qvDZvUPAAuCRNHzrGXCy-50">
          <mxGeometry x="3.5" y="30" width="69" height="52" as="geometry"/>
        </mxCell>
        <mxCell id="qvDZvUPAAuCRNHzrGXCy-49" value="" style="shape=image;verticalLabelPosition=bottom;labelBackgroundColor=#ffffff;verticalAlign=top;aspect=fixed;imageAspect=0;image=data:image/png,iVBORw0KGgoAAAANSUhEUgAAARIAAAC4CAMAAAAYGZMtAAABSlBMVEX///83NTW75vvT7/wSh7E0MjIxLy8uLCy8u7u0s7MoJia/vr4AhK+3trYvLS38/PwfHBwAfasAAAAdGhojICD09PSNqLXu7u4XExPv7+/c3NwVEREAfKvo6Oi/6/8faoWhoKCFhISVlJRBPz/Ly8uqqanX1tZ0c3PJycl8e3tvbm7G6vtjYmJLSUlEQkJbWVmJo6/d9v9SUVGOjY2crrbP7fwqIR1/tM2kyNq91+RfXV3k7/RWoMAWgKYbdJRgpMPY5++x2eyOvNImGRJ7kp5ecnyrwMoyRE0lYHcqV2k1kriEts6py9wAcqVNVFlYY2np/f9mfYgpPUY0PUI1KSSEkZguTVsoWWxPcYEtHhXF09qKgX08fptsYVp4mqskDwARR1yel5NHXWlWkKsZKDAdAAAAXX4ULjqtvMNVS0YfOUUADh8ATWqZusrpAcWFAAAgAElEQVR4nO19aXvbRrIuYAtbgyBIAhApQFDABeBiLjZpa5cly3LiyIodjZ1kkjl3Zs49M04md/z/v95egQYIbjJly3NSeWKRIJbut6veqq5eIAh/yB/yh/whf8gfMkPcz12A2xVn9dOC2yjHHZJoqZ8cDpKgdXuluQuizf6paiSfO8lHtZ89cWv+I8xVy/Rpxcl88Bv8r+nCD5KPnWr8sVWpCmnxF1BLZ/7Pn1n8+FNI/jR97te0QfSD+KMziT9GlUDISArVGB49/nAnyTjWjbjBQmIUgcedVU8pSZf7aRzfIPIGQkbavNYEjH90hq85ZWd3QhgSDmOOKtF+tzKKz/GlFNF2KwnLTOrsU1Szsm2uTbgvrQp7UpMdOrybZNygBNhgtR4A/EeU4zYPKl3uArNvx3UStApTkqhmp6xEQKhyX6qxVQ1VdnFTuJNySNTEYXXr2lib24pIG90QAd/8kaRYceOqFaYHUU0eZ+7seJxbMkWPPqBu00N+5U6Sq+l4RPMD2qJhSZngP6Iogoaq1YEtSUllnXpNKsYMEHqsnh1PAlmzGfDUMrIpeEaFsrcwnKKeOyFOCCxUK8eq4e9GTQQBtHtPRKIAoOC/OmHXVrcGv9uMM+uWQuupeaJNaprwaa/CEVCbPAYakwfY1ZW7yST+WFLa8O9ILiGXG0IolB++/8US02LXBv3+oGYjgGjdhWgIxBohokZNxHeBlhQ77olXTx4zsRHQUBzALle9hL7vlKg2tI+2PlJEuX9w9QZ+E6XBX21xSiRZlvAHmdQ96tUkUSG1btuiPMZY1OOII6wpid8OLEkkn5pFiXzwPS8vJvFzjn1iaaJ6ykBG/+7uyqT2yjQiHDavfwgabaWEzvWQmVShtkhNZATOOPZMqldS44doNZEy8kgpEdBMplZp0T4vJOb3979+K8+r/QxMFKCQy7CSaJYMVQgFKrqtsBp1PKUXP0j3RECw6gHmlvpKLaf3E2bd+CeU7+9f/fXF2+e70uqIcLL74PvOABqZLIWm4PSsEvMlLU9SYp7teDDEwdzaheRDKHcCKLekJLBuveL58v2TDxevd3eB/HF4YIEeGqrNWHOchlWUD+kTIAilOCSBXyQZm03XFhWiLVqNcQsv9c8Sp5j3P1y/3d1V1oBGItK420fOuUb5UvU4ooBWIwKsPV3E5FhboIu3ph1wr9abOnbb8v3Bxevna4aDYCIjbqEaIAQ1URoys4EBi2g3kO/pAVEs4b6Rb8XnJuIMgLIgt7JuefT1dXEOHJJcVOJfJSpvv/nmm7dv39IDi4CxccObPaQMzAICpCN1SLrmGCKi4LC3CiSpmU1hRkAuGakjt5xcOvrthb1bzKmUhGr7Tnz7p9/f1BuTPvomfvPjty9ffoWE/iEfvxXx9bKizCAh8PARNBoFhbcBfW4ddgtAF9qTLxYRsMghOfARdpY0Qk/KOOU5Oc41yG8vSva0syVqQKt/YXSCPqzrN99+NVtefvNOErtBvT2SQR4uu69fSIhuQZu0sDkC6EuL0ClECkUqjiiLU13mdkmUhymzCYXbE/cH2y5Oo/EWYhHX9aGuNwa77775aQ4eDBRlrOr6b49/aL8Wp3CR8Hd5RKKTSCkiHekITr+EtWhCEVH6abNxRQUGOym+bWQTlmsTJxxaSgYMiMZPL7lqvocaEkJAfnp6cnJS2MgT+MPJ06dPMSjirtbQjcdYfngzBMWs/pFAFtbKQwpTb5mBhU9RelANfEjE8iAdyQfoRDulFvXb8sZRtwakFBziN9/yaHwF63kKCzrZffeSVP44xuR4BjhP/2x4DfVxLNdvxEyEs3kPckpHBEhhJgHs8OGjxREEIoJ2JTVT9XUH6HeQSmS2gyUHkFYUY2DxBoPg+PaaA+OkfLl3unEAyyn//OMJqXFh/5J+OD/NV5iNwqtfdkuG+zWDZHNz8+LFAMTcXbzY2Xn2eFCifUSFKqk86CCPjOg8NRQyQSoigh7ftzms30ZPx2mAREFgOd7+iLTjZZeAgQEoHJBToYI/3SjslQkS5wSJbed4BiTlg/MTyXYe3X9y8DXDZHPz4fVrhaKiiMVdkOVeGSUX2xaim5DTAEPBKqT0+YGyZvsWvI1fr4EYjyIYiT9SdvzLyUlctSNyrln5EWFxulfAkBwRaI4FBsllFhLhvzZO3o3M+0gQLA83Nxkqu7M6kfJAFTqygow3TIizM7QxdMohZ0qR1V8/kbg9j1GqJINx/XHjT9hUIBr/Z5+1feGcnf5XUlOnjK1CoKpAISkfZJSlcOw83dh4+jfjPpNn+5sPKSwPX4i5waA0UrURMiVZDGNqVYfUuJRDPSl8WOnrwpoFAsLaSgbNLlLtATIWXKF/nJVZ1X5gF5BKl8/O4U+FPYFYjiBgLinsxRew66409MO37x4xSB7c27m3/4GhcvFGyQmBxgrJyAw0iog7ATYFD/T1mFqdQ4/7ti5AajIzGOXND4QB38cV+nsU28FbdskvxFReCQUMCbIcpEIIksKGsJfRkm3hDf67+xuD5Mk9KBCVzTmqQr5LAw2yhOOqdSkJDUBXjclFK5Xa+nqdjd+OAVGIgjz++uDRRVKr9/99xb78X3bRX+kR4aqMIBEuEbkSSCDfZO3m1Pk7/vCyF6vJPSI7z2JUrgdT/EpKBYBdskoggUwCjRiRaGzbdXWtiDh1r8ge9PoC4fHbASzxo6dJjU7eCdQQYnb1/6fMDlxiSPYLhVMBQ1LeFxJDw/+Ut4/Cr8iBn+8nlhPLsw/Mfl7ng5IRZRgyDKJ+ragE60UkYMoogzcXm5uPHx/QIvNs8A/3nNImvGLcPBz881thfxsfQfVHkBxtl8/gj3sF6HYos2wULqEBFQrnBwfCv6je/H6QAwlnQA/fgIVJTLmuEy7d0gaWXByGa+URXQIxILBMDz/EJX7GQ/KyjtUE64H2t3fvYNR6KRwhHUAAHJfR8ctLAUNShi12iQHYfnUEEcGHBZ/e7n2aTDhUrpYHpdkPdTWsD1CUDXrqOn2NP6YOTdolgDx7EOv1OU8HJ/8UkB8uw9Ywf914imwKacZpGQUcUEEQJOf7GJJtqEg4SilsnCFoCrQFrwgmTx9nySQBhdnPwzeLkrsygIKoRZYb6hpHuswJ9buQQ1BZ9qH+JpCkfcbvgYCNBIbSLGpDdT8oF5At7UFVEY6wPe8hdBAZlyFkr+Dfr9jjqC3NhoQHZTlOkUDfMNY41UQng5SYVGEprnChnrDyPkpH5k9/Fs62YdghbL08LtNftiHVHl1uv4IMHQdwwh5SitMCUhFCsv9mRT5ZDAkiFQrKMkSrNAPdWF+WsdqnNlNsYkB27s2FZOMfgXB6Ba+blPfOzgsUFVT9V+Xpm5e3oYoIJj7pPc37aAySPJeTEgpKMMMlx4BAljXWGMSH1Gbk4jUHyBxInv7NMSECznvIEUfCwWkZKgKiVqgLUzc/KOBj5A6Ff6LPfv1X6pV/WwgJ1ZTHeqM5c/xQUsS6qhrr6/r6AzJ6i1n14T5XnJmQbPwJDw0EBeJ4BfPqcrtQfpV7e9JXxnwKQ5JfBGHoPd+lFFT+ZSEkjFNUVZ+IeaDALthgoqraGnk1oCqCbObhh3s7XGHi8j7KJj5OKqhJSMBVPkYmc3S+8d3BzIccwbClsH15BUm38fwdy6zATtESkCBQNh9qhqHCID4T5ksK7IJBH6x11hee+QNAafXF5uaHZzuposTlvZ/tpWz8GV7b2abqj9gTytnVzMdclssb5zjWjX7l7lI+WgoSBMpjw8CgNIGMRz9kWYHdwMM6xMPQOmscvGEsAsYPeRKZguQ8A0kZ136PBXDb+/MfswdpWMBE4+yecLe5fLQkJNCIfVVDoOhBezQej0f9dr2h6RAPQ2utMYB3DimLKPXfoM1MFyMu8H4WEtTijnDOMCHGM0uOKJ/Ac/7FdZZg/Ls8JPdgD93QoJ6oOhH4CeGhu+uM3zs2UxHN2HyWVZEUJM+yhoMQkUzYtSkQKZdnEwnFBbFv+yf+JoVX91eBBJp5RwsCohsQDc1o+evNi9RrlEWgR7/KV9a4wE/SSSDcvYmaXehPTvf2Xp3v7+9fXc1X3wMUwE3+nr7N1QqQoMrDrj+M3cVe0GlF7prhgIAPCa8qg1DtHOWXIgnoH6V1pLAJ73D1sh0ubcXnSImC3zPmlzwgN3rNQhJ6NGUPBurCJ64sKhkqkkBXhf2CGU3EQZL2woXHAurmvvzZXjIPfoW4J/y1vF1GUV18m0crQeJ6zPMqSklcd3aVGo0sBqpuCjOUhIMk43IwJLBj+9U7L4CO5PzqaOknOwd78V2OV4FEEPq0XzoIGt0RqIzXOVCzRYMR1nV8MqsYnKmnyKSARpbQh6fvbFSyg0Lh9GyJB5/tn3JaUjhP7j+zCAkkbo0FaIYO3U5Yr6xvUlrLpkYzUUnedmYxkiKnyaSMBl8xSCffvKtM4E0O9hcoinNwfpyyGniXZyuw6wPhkOWSJDHsIHfjqO01KUpAJy0PNIMwwSy74V1OOn5FkJgoCw+d7/veMuvOOseQR7Ke/NEKkDzqJDOLJTsUtiJDi4T1eJ0eCc9AWzXomNlsO+bIJJVqPAlRsqxQOD4/WIVFTss8KoW95O6LqeR7ke/dgCFsTYjKOgL5rSHuTaKUXIchnBOkUdnhLIcfxDz5bwTJ8f7BwdnR0SoNdXC8HYPCu+CFVLLTACIvUg0vXPI/3nIiQiMKjFeTlNycknDtyPucwl+w4SC7QVK4PL6o15eb4HK0t80S9ivYzc7V82xSoFhrrMNqDBzrwGBE58Y6zDlF4RuShwRNCdvmXdD25dz2ujo722JPPDolQ4P7K9jNznBq7E8SQTyd7eYyqbFghCfEeZDwlsMRbBllkI4TYiiUZ+cFsJx9B5Xp/bfjXhf5qjM8yMUpySK72bnYzQCiDIciAFbtI0EhxAoOjXRKbh4kvOUk/ZxtknB2Ttmo3/HCwJ6O+D398bmEws697TIXlCyym539jNlII9QfNoJGY1wJbm4+eNIo7uRlBpHnQsJZTqwmSaf3nKQP0Xfzan7OhI2Cnvz0txEO7jhEFtpNdmqpNNJRR9gw9KrQmizf00pLVcKTj4ehke2WzIWEV5P7lBeTQQmUZMYjWQen25cLCnAUK9lP/4RhJ2c2C5Xk9dSAHwh833ejjqEhjfdvhIlrk+lceXnsueXh1IQ6nTKnqWfbG2fC2R4at5ipvyZVqqOYek5+/5e7vJLsXO9mERElmaJg+q0brpzuIFcjSw01bwx5fiNxRX+ER3dP+GvPj/Y3EM1un+EC5j78vEzSrgkmG+95ROaT687DLCJo2rncTJ7l+DeI2NC8fBGMZowPzm8lXk1w5+8r/tpTEmUQjzPJu7uAktHbxwcYE8ZGPLfOf/zOh2xEIo0OFUUsftzKz6CG3NZEV/PRnN3HmVITxKfvOTLySSoVDfnGa8J5yzw4ww+AUV258OpIcAgmqShtPpNMORvYtJpu1KWiMviISG1SIvnVmb2z+ZDwaoLGuE7+lVzZo1VEn7X/h0nj/Iz9iMYDv8N+CJNQoXx5cIS7BQWuOzlfSXausNXIspzMFFYmhqaqXQBujknXJvnV2eHlgkgpVQEYZf3pkJXFILlUPEXCrWHePfoO8oaJgUBdwks820SgER3sKBbSSYEFY1pXaCKF0ux12/1BPNtedrYiDU1vFG/ofXsAq0hnDqTz3XDaET8obDz9GZCJp06FmM0ZuodyggeFL7cRGFhtDk6RfqBRY+SZKCqISHizmdccO/sIEbmLRijg/0G3CdgyJjPS9EbRvlGv7xDIkEUWzLtYoCa86aAswdN3u5YswdD8f/CgMM7N954WkGq8KhTgv8fbqAGuoMKclUkol/QGyns8IvPMBjIrUguloWpI0LhW2JMVSSwFqA06hpFaa76sjAE41IxF07cWqcmTDCYnP757966IJtmgtMc5hET/N1YWFKPimWqIVvaR0SAfhWadzEBkjtnsbBJmlQZouMZ0/EhHQ1uTIZBqeG2Wr6qavWqq3hzYYkPXFscyi0Lq+xlM0HIJYJApEpdo6sDvEBsBTS5CVLtfQBO1oNHAaAXPOShcmtR0VkDkgvkaEK8pMX1dU/VgDCoEiUhz26slYM1mqavOZZFYFiUs0phgX/pVk8wIQCN/fznBw12nBfznkuCD5zPuk0xA4ehVYRqROQa78yKJ0DxugMKJYM8mGFfIGr4tw9XzFpTPEkceactORFlkOik6uf8A9+5/7eBqwyjN/zeO1ogdYetBVoRmvZ6xrk0ZLUkp7y+JyM6zAT+XxEsN2vgqBGUQkC+tjlNf2vFsjTR9+YkoC+K1DCb3j2FNcYCCJjEKPVTnI7Ko4BxTKeobXmIzitcgwP+epRCZba07HzLrLbz0wk5oP5FOLaaqC0swAxan42v6CsH/o5UwgXFsYeM9BPwMsoaLJ9iT+a1QWYheYPuBahL7mvJxiqXnIXKdzY+ItQxl+GpHaFFGaDnuko7HXRa8m2HyACKA5tDDcrWRErwirFE+OCB/6dT5S7rypFBIG81sRHb2M7PSJGUoAi9LGW5iTK5vLoVJtPLkrdUwQYqyjYnff48Nhk6jPyPDx+V9gaZYSTB/mlGRWYjsQE+TmXw1xmN7QzGr8m6yrZ2/zIjOTdIqK/LJ/Sen36FiBvwQT5mmz6CzIR8uL1HvJsMiM5l154OYHp0QxWJdRXNtOq1RdmScQ8EXzNtZOb7I79zLYPLo4BTNGr/kk/evCmlsICDHWUBmIbLz7MXzqemtck93fbelGWZrzlpo59bW0i/KlWfV//591Mvb4DC5TGFTKBf2HmQBmRGh7dy72OXWm0p0QYEkkREiH/ZKWrP9xSItcW+8kHpV47n/5Mkj07ycGu/FjAop5OrRFCD5NLKzsynzNiMNjC6ZEW0zVvRbH2MeevfGi0IXKMrOtKI8gVR7ulEucILGAI/PD3LwyFcRCIjIVlTQ9R5jXQ1FvJov2YQRMuTWjecvOodKcMMB05UVBdPKo/sH++d7p6fHx6ene+f7B/e/z4EDwpc3Ag0BacZLTIqDJtYOoMLYfYz8cS1pXtNB7uVmiEC7kyriRJ9zPexbdtQwaEzqXSj1SSPQOhG2uEXueFpREmSwzPw9T0Ugh0jJmhuUHgnQmBPs7Zm62oeYpHcpNG86hcLstBx94FlWaVQP1Fbk+1tbW1XfjVq6Fky6/YFds0o2miCoQCkWi/BfvJDQGnTDSPh+9nQCXIvZoMyTHEB2dq6uUwvHoc/VDH2iSBLajzJS22hjGz4FgBTlhozia6qrdmUAawqrCuuKBKIAYVCKc7Z1khRg1w6Dr3d25sHyYHVQpgGBT9h8/Ty9DYjcb1Vd3dCGso2mf8EqAOh8Uhh8hMN1NTzBekwwWGn7Ihnsvnux+WwuKquBMgUIhPzD9e70KjUF8advqIdAwS2r1kF226OPCctcFaGiho1ubzRAG0jmipK/D4+8+3x4/eHeHG1ZWlWe5ACyfy3tZveJQUInjnbUNunrbakTINbWuLbEiXQN5efIvHNDY2lMPBkdz0IPIcPW2yMxb6mlVNx9/vpif2c2LEugMoUHvNmHa5nbV0mSuU1d2MaerlrHS1wER20ASV4fJAJKz0HPQpCYIRifsJu/LEpWdnffPNyfg8ocWHLg2Ll6+GY3pR9Ss93tJSvq491t1fqQVEBvgOkdw9YAzJbvu27ExKUCP7ZaHR0Bpodc9Ei2OUvBcvHh2Wx1gbikgHny5MGDPDg2X0i7WX0EIZrI2hjSJgEsX+So9SDGpPbJd9Uzt9yOziCBTmfc64lpfoGwPG9eP9y/N8eMZgi6YufZh4s3+VsYyj0VN0mdOGNpyArlqIHLMLHt29nIZ774JQpIs64h5mlOlV4qAojLi4sPV6Sai6AhJz3b37x4Iz/fzdmCg5qKjzebUMMmPqMUc6mp09QZxMQ6nFnw25OA7KDTbODFUJrRjecjF9Fux/E3ZEa7zTfXDz/sP6O1zpV7Vx82L65fS89389Dg9uKjwxKuoY6Q8cjJVr9mRP0txGR6z/5bFwcpiSzXkWNSoy3TDOg+VQAGwGHY6KeW6qLdByEyu++Gr19cX1xcsL17NjcfXlxcX7953US/7ip5+/Wh50ij0VikW26wLTnNjop2YRStpFPjsD69qU9uMrb3cdJWYJjYMyAgOikHhkRWuhr21qoeDvI0HxIx7g3sMgGog7AgNJR7OCrQ6mRZULy5IAngub5vEqpCTGqf+IUeukUWqTNAyGoPcKjp0IqMTqulGur4BhsAc4rBfUE3RQGT3kCT6OJdXqHnRZjU8vTB1OufdvPsqiXZbaQNcd/ZsdD2bToMgGni1+kYU1NyV0CkPYq9L/QxKuyHVlH+ECcAavFTq2pPSalJIqbe/aSbIEMNRirCBc4akIroEDf24QbT4Vw+SBI/SwYLmsDQBmyH8bhvCx1NX4lDVgEF8PB7rpogPfmE0Umv0oW0qvIJyqEsaqqWnnXQYctoGdXKzUEyPyjRAjDodXss9mInwPuHQ5loCYdzSx3JccgqIExGspxvIo4++WTbh08qemSkh0s7tSZEJNNaIfXTE21Mdm4dq0xxJDkIe3QNZRetXNX1CZ59fDgiZwDNacEOLvoijfia+VpT4mdFVI2BlLMJMhKn9RGzoVeSQN7ytcyI+mBoqFMDhohL8LIEgoTUVGNIQKgaehvHFT3awVTxkhEQdgFRltjNsqw7FT8AKbXwNXHqfR9Utlwj/4c1i9YTqhkLEfSSb0xtct8pIVMJkVvCJgRhUGn0gl7n0WmpyIyUhmpEVVMwXR05Lbmvk9U0WBNcRJ9iKa19flup8c9yA1CascTT9z9FdKKGghNmHwS2WtPb/sMQH/RVwjmwlsW2rpkN8hKPHp7a4wQ4axqToIaAk30jQDEZTh1CNwvpE2RGqVpyek/5aGLPeu8N9FQ3qONq0ooER8sO/DQiJ5xCJLSRVzYIwSAkVIgaJhWpqZPJ+VvwK+Duhn4t+aYaotNLGKoqos/s3uh1kIag1fZmvcuteuts4lahc8s+xTe4948w2bIkBXpluiYQiGCidgSzRomEKroGRIUzd8THQINPQOpDCaOqDaVS9oFK5o1S+tgWZshtawkMmHOmIqhCzpyNQyAiCqXw1aQBNBvilpWubrD+WVGSOe/hlhC3wA8dxCd0430/VKb2B6+X0mGYqYGZcdmtq4k57epdwZx2gqE3NpINdhwLNNDc0TragXWoJ7zTUGSeGT36Jg+hg9LK9HU3bsPKWo5vZXKJ1aDyOTIkSMzpB5tmzotJ/Uo74kJZ1xroSBtQT9cOuNnorqXwGgB9rzLBzdo5lEWLNnDUq2TVv+9l9NJt30Jy8eaSM1Qi102N80Etr4ECmQgaRrEXmw2SJuAhgZGpMsGomwYMaZin6TSzZqF72SOt5h16SWHOQEmvIRgGp1CaiJWkwRxPIo1UmrQHIaGbfTsNECcRzbCWfYI1zB7R7tBro6YRCQOhw6uCUA9wtAvtAgZpKa5sVXgu6RahO2IvBD2UY79S7WadbLeSJbWt+to3PF6fRBoMO1NA9XBk7Vpo1oOWhrDCVxbSL4h/10HS5Y2yKqBPRyLup3+1y7JS7QhbmQbTWqi9GygQzS5aGPGhaV2BHSH2xWwrSvxLmLnjVmV6orM+5927n1WgmzYzcUTVxBWSJRiSZKf2BzxPQki4eXcuSHo3TpZOm9L0k6fC6rsj04EbOhKVJMit2VK3uJftQS6R2xycXZt7T27mpvUpMkGbZK1e1k8j02XdQvxQV0DOrrMOzwA9WZlwVXf5iCwDieHlLCW5+bS725WcCBofsuUpbkXCv2/jUAYhzzV97u2DmXlnbt5WPjmx9V0W3Z7mViT8kveBJKXSlzraUYpJZql/Jc/B3N6M1tuQHuhNcSuSFteyQO6n4hnB5pxvprbNw7zqf66ezk3E8YpGrkfgN5/xlEy8VfdmNntvnHe3L0lLwlpdzXUI3DzMqgUyCbvW7PfdNta6V9rnkOYwj1uRJL1c2C3M5KLM2cPd2ugO9fNuIm5Fm9r5g0pi/nqpZ2RgG82M0ju9LxySeq81awCBfwtwI9t1awxnsUMUfOGQVNwl3txbL2VHxwQ975W3RKIvGxJt4i6xbnk0nkpr+5WZFXc/8Rs81yyDpbpkVn3auGa/3/bLRsQNqkv0yLYq2vRZyl3t8X+kNIRlXt/UGqvTVjIK1l+cOyCmnjOsMS1hkBO5rLhPwJciLSFaJtBuRznZ0/p/JiTVnJGeHOm6Oac1goXXOW70JfX2iCzVG3Fy98VozKfXsDu2aqXPMMv1Y2WpRmxlU7ZYwvmuysKTYbPTLe6+LNdjd80882rNJ2aykfPUOPp/iJi5KxPnb5qwRTaJLn3peYJZkh/fzq1tRBY3WLdSnjsg+fY1l4d0PI9UmjUv63+jkHmk8ipbHP2nS51MB/zPDOduJiM8fxrcwrtNvlgh02hLn3ztzd0Vh/jg2pcXz9+aUB8MPnc57pCoxOF8oilZjlpHi8bHU4tazE6jN5DhL+1GJuOj18cKGHZTXBc1DkUg9oPpMKwVtMcSUAa9Rmqk2GkFPZu9Y71xKIPRdPKx1eg3gTKeuHT+eTwfw9W6TTr/QjsEw1TPxw27sEJKs18Pb9Rxjnoe3kVWkhQrtaGu2/ZsBa3FkyRZASVvHKc4gpKN574XbTs+1mpa+C4y8Oqp+/t1ywZFtKSP3GZASz8ZejaQyQ3cUQ1dLFuZbRUawMbbHshKib4ljlzsdO0SUBSsMpFiy6KU5G2dQLbItrjoebYnrjol1Gx73Lo8bpKt0/MymyGwNQ7OIFldLlXo6XUvWYvlcd03s+tlFnTZFBKyLB1DEsRlSE16VO3sxmGs0+fjLqCEts5WyYNjTxRamXfHKivOa3MVvsDcYpdWaWppmkW6IMrFkU4AAAe/SURBVKbEYVikz+va3Incgsz0/UmtKGBK/K2evPWHX7zXtbKXxp0+H/+EZoa26LvHPNoCYzt7SXqpxkKJaNtKAG3pInvJ4hCPHi+VbIs+hU5I7ZM36dgWtB6ZDr0YFj0b2ohsJQFmi95fgT+w21h0BIJ2bF28rXdS5/jaPlURBRWBtTxFm0IyZt1jka7Q2JKJZivwaSWLXGOvNCHUp1eBZtCKWuEoni6m0pdMKWihiUkW7klkh/cWXkGh9CPf79RHFENcYklUfT8KRgkiEbmNbDcQci59TxP5jVamZqo1dEaJWqnFyJms6BLlUgOtslfJQkDW6XNLVKXo29jo8hWHGKNU66IEcJWsqSutNFJINw+oZRNV9E14oEfaJMJ1KRKa6hbFqf4o6aTa2WdXyTurlbFDGwDXY8TXSlS2ICJ2v1VtE0yodQoaQaw4oDpFtoJgy3Va+IFKvYXOkmWJlocs4ZYUWhCy1HT2tJUcmZCG8KbyVGTFd8xLGj6P2iTO9mX6oxOFM6xEyILqOJTo0Hrw36RBTyZNQvd6oJDQWDXZjII8gk0YJkGKEkI9kKzDrkimppD6SIAqGrkHW6S/lFSpLkz1LemtY00gfVCAbZKsPBLt1JBkj/TIMtnkkFQ63sKJLPZjuVO6KQrkakvjQKABO91GJlnY1089glws9YvweqQS2N1Q3Y6XEhPlzl9tPUNITaWpebbVzK2pfRGbpJBIIh+QEUjEWipyMwl1JKta+4nXjZ+eqA0xK7oueLq1iA4xb0V0BvELSMpB7p9se0MX6s56o0aOmKQM0xlv8rwE3WqNbz+6o4RU6mSvgKfwj6ctmSyTiF0MV4GkSQg9UCsjoWq8SidmHsY0PRYHWEkp6FsekxkZVLFWyOgTTszpWqYbhFEJ8xRx69aSILXFIgjAzbMjPiLerYfWOX4euw0LAGmbkpsS3Ll9jugKW+ai2aYyRS4MIwUrxtc41MRXyOgTc5WmliLTHGcxPkByN+xEn8ZG6L2Bcf3jnSnkGosCIuZk089jK+ZpgZlrjwkLt6lrZWvTTG/9w5rA4xLYdqYlDYriChl90orTptbN9K98UvgYfi1+Dakcu92qFQfRbEYvadfE/KidZnxwEkgNuA1LKfUmCkwzA8zRUd4Ri5zjo0qYhHpjKdMmC8WkDDZlasQDJwk9ailJXBzEeiLFWzO5pTjKpxPeaV4wuYpuO0ChpltOJcpIgCaRGo59+OCHEg9LvEY0EOZTbLQJ4g1PqJau4oNpHDCVy9wiZYtjPkr+/Im6xeqfdKmqw7iLRkjRTus+9T8xRgwh5lNocUgjE41JllFHVDGZD6bslqouYdxE6UmTcBgtFoo0yPYA6HHWE4nJnX+RdHXM6u8l8cmEGRRWvGrav8SszJBlwSr7XeczROTchF3ZhjGMKKhDSmXrKZszpdepYSrpTMVSkGRH65kjoiaosj6ZlaKpepYK0JU1UnLMOtT6GblFzNgYsoPU/k+slrQCpXRt4lefZnxwKjXtpapjsj37VukHU0h4pPEEBxIrixbfL8EH0jQV5CBK+3WYUhnbES1w4hwGqxW5b6LnPT6IoExMyVOP+ZxmAJgP5vOwNIRkWjJipr3KIIef7UUIjUqYQELq4sOq0NAsG+QepmJRIsTGsZa0eC5xmjLb0qaWenriZkkXjX63+Ud2vHg/HLb+z0u0MQMJbeFeTGzLvjieu69o03ZuDckWkDqnPboNEaEqTqy8E5tPG0OCAoNkTZme9GKo4RAjgn12ifIBXZtFEYt7qU6K1CkEGCD02rjiiJSBhUalaQ2l1cFeamuEtnYYkDuuMtGA6ZbVcP0oHMCOPDbeiLFEEI7QR9DhuuVOpdYnG1BoJP5GhRzVmmRCt0sU2kMn0F6AaE+0PgpaauQ2LDILU9/ip9JIhAX7oNEQ8cYVasrDdlJGSYUak9LT6sghWgZpSmuVdHS8PydKeWFbxx0GkxEh2dTJi2ifvksLIwMLjEeA5hUi3D4onTYYiSReA4QVlfRtVNK0LFKrZ+JBqps0tA3iouGst22GqWwJLXl6WkWX5qBkgG4NuizQWSVbYmbStiIgkeaIS61Knk4DY0KEOrNypgIJhmxrRZkGWKldYr2QdetorUhomai+luojuh53rQQddZCQVHzrzJCOwSdd7XacxVgBEcJbnJRo7K0nqVAFROk+dqqsIh1iSO2gprCX5kXJqbjjQ5SNeRHq6WPVz8Se/WRwQFH8eONMCskgrytiJsWW0MYNDp9sWFq0SqwQUPXjyH7E8sBeG2kdzamRAnRrUnyFRdu4U4kroHiJF2BJe7nWR/EctT+iJdjhyNxqPlpnFq9usf5BsYbLEKYgsVDmCWQXIRi0DWS7icyZELY0lepbIH7PQzvOA9sbhJzN9T14rGR1yTN1D9il2oB6W31QQ5fYlhg4yW3wMVAqdflidtFt7FqPuMGogm7TJMDrlZJV4tfbBzXuV3TLoYUvbkesDPCLRPc6rVg1sTc9qBji53ljGolU0CXy6ludOJ0wCI1WhpbdMEhWyziBprv8K2d0eEnmbQdmSwtCNRsC+Fqgsbc8CSa8TTwa6UeZ5SRuYHTcFBO2UBnYkS10MbtiK5rxWgLHCMJOfF8NFujLXqHxh/whf8gXIf8fficfSoLem8QAAAAASUVORK5CYII=;" vertex="1" parent="qvDZvUPAAuCRNHzrGXCy-50">
          <mxGeometry x="8.5" y="90" width="59" height="40" as="geometry"/>
        </mxCell>
        <mxCell id="qvDZvUPAAuCRNHzrGXCy-52" value="" style="group;container=1;" vertex="1" connectable="0" parent="1">
          <mxGeometry x="1079" y="328.5" width="216" height="190" as="geometry"/>
        </mxCell>
        <mxCell id="qvDZvUPAAuCRNHzrGXCy-53" value="" style="group;container=1;" vertex="1" connectable="0" parent="qvDZvUPAAuCRNHzrGXCy-52">
          <mxGeometry width="216" height="190" as="geometry"/>
        </mxCell>
        <mxCell id="qvDZvUPAAuCRNHzrGXCy-42" value="DC" style="rounded=0;whiteSpace=wrap;html=1;container=1;" vertex="1" parent="qvDZvUPAAuCRNHzrGXCy-53">
          <mxGeometry x="-29" y="-6.5" width="216" height="190" as="geometry">
            <mxRectangle width="110" height="20" as="alternateBounds"/>
          </mxGeometry>
        </mxCell>
        <mxCell id="qvDZvUPAAuCRNHzrGXCy-44" value="" style="shape=image;verticalLabelPosition=bottom;labelBackgroundColor=#ffffff;verticalAlign=top;aspect=fixed;imageAspect=0;image=data:image/png,iVBORw0KGgoAAAANSUhEUgAAAZoAAAB7CAMAAAB6t7bCAAAAulBMVEX/////ZgCpta//YwD/YAD/WwD5+vqqtrD/17//xaH/+vXq7ez/dh3/2MOksar09fT/9Ovk5+X/sYX/hz3/fjP/4Mz/hUH/wqb/za//kk//8OX/59nT2db/gzv/bADGzsr/fCn/ml65w77/9/D/rHq2wLvZ3tz/t4v/8Ob/j03/mmjO1dH/5dP/yKf/pXD/y7H/vZb/mVr/dyT/cg//pnH/rof/upH/1Lj/oGb/nVr/lFj/rIL/qnX/lV+Egy71AAAQt0lEQVR4nO2di3LiuBKG7UjcDCEhQJYAwx0CG5JJYCawmcz7v9ax1ZKsS9uYgfiwW/prtmqDhQz6rFar1RKe5+Tk5OTk5OTk5OTk5OTk5OTk5OTk5OTk5OTk5OTk5OTk5OTk5OTk9B/V9FbIuiSvTP8Pn+s/rOLN4mk4nAyH/cZNSrHn1khor8MJZvLK6D3bPdt3hh6fy93gz7+D571GtdgPja1KVLB3uNzyET5ZljpBxb5QI0vxqiye0OzV4bxev2Kq10uTRTGhojUlUoW9dumuoFzqZPoWlQK1tV3dXWd6N6ZRWAHJ0OJBK7x1YXe44NpnHypLnVzFutA8qRVVDUXpqyp2uTHnWITqpT5e7XXBlyK1pXrpnsSX6Fumb1Ghvi1CqD9672aqwFIr+hBZ0DTDgiQLmgF8qiPQxK2INrZRei5Kl5DSN5MrW/U52h11NGr7Bd8UNOQh07dA0bD30+37Hxm2y0LTP1y6epWCplGqI2hCYRXnhCasodDM3hqxLgrN1eRw6b5sfBvNQukpdfhP/Plk1/SlaKJRKhzL+F90285UiabLQlNKc6hA86tENDGZ0uRp0Wgs+sNSCpsvQEPvAlB3vS5X7j4GlFdEtutMtai6GDSsEeuLQ4WrJVnYRNMQFBSnrNiYiK5jVf0laLTXgtvOA+85dHT0BOn8aHzK+jJSZ29pv+ZxNKVhNou2qLMugKC54T2kZDBYiNfNTvb1aNhdmmDpkEsHdHY0vbcHJhtDZYAbXOg10IIHLdqElWrU7bbm3WNu1VCd4wNZPmjC6StjQ46wI6Czo0lS9436aWgarNHrB2ad0DUmNzaaRRIZ2Z9Ma5kTmnACy9jQWaZ6YuWFpjMIP18qGjBVw/RqFjCkFy00fLqDzXXkKGTMaHNDE6yi6sixo01eaL5FnzwVDTzbpfSAABuR6lW710CnSep0T3Wk2+SGxmuz6uiRTlpeaFjoIxUNDCNXqRatWIKn30LDO02SF8Ev690mPzQe6zY0Y6BU6ILQ9BPmH4oavIiFpgEjTWKgB6Y8eqfKEc1f7OIev5ikC0LD2tscEHQN1aIqmskB1xu6m14gRzTXrKL7TBVJXRAabnVSQpxQIhyOTDTcB0sxhhDf0XzzHNH0onk4aWWqSOqC0HhsIpkW4qwKJ85EA05AmgtRtaMNOaK53Uatt8m+hhXpktBUD1gl7mg1bDRgz1Id77lVxKEBZUEDzZcSEBD2zEQD9ix9uvpkdawc0XS3zKAdt2xzUWiGdXv2oYiHAjwLDUwp04M8tg+XI5o2q+gbcqXba1+3w389ez6qo5n2omLYgqmBJghrDOvL/hgwNPicK0bTSLdLC0nOQANj/Dz1A9xYg02OaL5HF8mH8WrQnq1qA1oIRQatccego6Jpv7QGYTG6Xb1awUkNzfrzGxS8f7QxBtflUPLPMtM1u89rWWoX99QYTTE9xDmRVw00w8NDDffu1EBQjmhYhJN+aq8Fz61CvNjmE1qovWqPeoym90H5wg8hBWs5W0GzfCGyIPXvzJ7YjagNxIh3G/0VPRZReVqIFX+JGA2PwySMGbE9M9HMD7l2sm7VycgPTVCL6tOTXnorqtyE01mpn0Ki2Q2oVspYzo7RtGvaUisdGSPIMvwcpCbRbM0PwN/2KN+goIEBIeHxX8QAdDRQwaGg9dOV4Qfkh6YDLaa2qGzu8PGmsvNQ9WMINM8+ASSiGK1pI4NEU+YF5co38ctqwZPQpIY44bFn1k5HA053/cBSD181wNH4WxXNtKWiaabXy5UWeW6yyPNKeak94K3sb1b72X618fmC2yq2VhzNNSsaFnz7fKhBm9Naz6w+RNNjTU3J5uHzYwMFyUBjY6AZQLIc74tSBRRNWogTBqIJa1odTRYHjc9XVRdNQ6PFHjv645Qp5eLwek0lfmXa4strM153cP0Cj7xSCtBMI2NI6JilGgadEdQ1UqZIgKbsseVUuipHcIMdv4P2yOlopvtxpH3k2PursdRbnBOpouHry9gXBABwSUcDsctD+YUQolOwa2h8f9YRuhtoaMj2tYNKQ5aMBkCTjTJ6v0O7bVTDVGYDEqnJsRvQPNLo4ZetNf0ANi/xGzma56ig/ypffYGCal/V0QhlmteE7XeV6AYPlYdeR/N0OC7qyQhn7D0baJR8WMP4Kp1dE/mhVJ+IpsK7g5KfO90CBX04X4NBkuUiNINd+CJRV+6DN2jyOGEX0HTC4sRXk4B/QMHn+JWT0HCLhoQ4wfnl7Y+hOZTxwdHEfpyB5ngRonyhBDTLF3DEtBWBTsFsNHhZXzqI0Gz/IeaAcTuCkUt2QhjK/ole1NKzA2bh1BjEaWhg9oj4wVXV1OlosiXj8MB2bCxPRuMX/oqrR9Es32v28O55e7PNuNjj/028zHrNIHzvq15qB6xltwE0A/vukHemPAGnoblJamYZ2mSlEDQHsgq84sQo9tVoes97kSJIH7T2YI2h+KhqHfHAzd1EzbNjWrFbjcWfgCZKPjBZM5OmvP80NDxCbHlbcqmG6VLRkPF30OPnwzYco6BYOC/XGu12wzZ82AFJeMzFCCQ8eKvVysyiSYQSjVVhD16XQ9qJaPp4iLOqtauOxmxzXHmg8QmPdcSzyHD+92B872DX2YX/7ABksAnfVBClAQ2yhyRoaf4CR4NFT5k7F88LTkSTsGgDxEQhDU3RXopBb5MHGkvbzeyITPR7Gw0W7WcTJek/czQF06uIPhTrXzKseiKahEWbifaqjuaCeo2lf47a9/RgoSFbJLrfZsZzxP/iaAbInZhFi4NQp6J50voHlxLaZH/+a3qNP5gdAWdMTTT0B1JsyWanPq+Yx4HMJQcm5mjLBLhT0aCLNgt9BLrYsUaJrfM4PqHbV+TT4JrZaNDVS0gH5ZcADZ7lxtz0ggj+nIpGm1sKDXUrd6keGt23hTrvIhhJ6DjrkqONZoCuQDOvWITbOBq0cV9ZQZFtfSoamWymFtHt2eWi0SZ90x1fk4nnIAdkoZEDii5o8Z/wB59yojkhOzYqiWWNk9E07BAnGLk4RpB3NIBH0eI1yUxovDiAVvEyyUZjzTeZWIvTv+GPQA8iaIKkBJEAdzIaGPK1ECfL51DmofnG0Ahp/s30W19FzIDG20ENNXzXlykLDeoFCBeNB38YmoSOCbmJI/7XyWi0GDOUmBuwUDQnRp6TyQw64ons7rV+kwEN2J54JMY07fauO4+Pj/t9y3SezfgZ1y1D01TR/MILsgQ4QeN0NOCOKSHOqmnidDQsj/3k9ZpkNOpcrqmyyYKGu7YJSbXBsnP3G5JlmMX0TTTIPNITaFoqmp94QUDD14BOR2OFOKFbKN3o/KucKWTUNTCxzJ8dDQ8Uo9+9V1n5lBrpGxqaAn6OClvwIVtocUCT0C2j0I+/5W7e6Wj4REU2NfhWasYAlhtgh0R1QUqIkkGQFY2WttE9Gg04wYhFW499K6nGQoM3WXY0bM454HPOM6AxJpis6TWXTUcDvezQKSpg9hIyar4SzSO7Yk7Wb198NaeGypSw86JpnRmNYdH6dauAnoeW6cyB1Dy0r0QD7tRAd27bI7g7of62uZ+9vneiRMoP0w1IQHPLHK8MaCAD7owGzQhx2uEBA83E6laIoFBC9uZXouErxtqX58lOhA5mOyXHMiuape2h4WjO7QYYSwAwz9Em+waaLBOb9Jznr0Tj/WaXVF9rzckMHvV2siLPCYexIWhwL3t5ZufZWDhb2KFoA80iQ0qN5aDlhwYGG2XiEawgFmod+LSy5jV4ZwAb+cDRrJKd5/WZp5yebsOM0GYkA00VPbNGVz91f82Xoimrz3gknlGzsjZu2FNOPFP3WVtLi8LLCWGDMvsGIv/0LGiG8chvhjYjmbvS5of9gInpBWRGMzptXhMafFbNQIII7iENzVrImVoL0Am7pu+0heUITUJm9nctw+MsaJT5fwNpdhPN4dizPdRkjwYoRiU4Ohog3xSf6LCGau2JPjM/Ek008CTsmv4gagW/IjT4WR6/2KcSuTtnQcMTaKL/NUObkUw0DXt/syFuz1Sblz2GJhuxO9bimxnReCzHNR6onwus09ihYtYlJZroXWSDtThPlxcFWZiOoIup7KEoiBTDs6CJQ5yYPbPQ8IB/ikVDTuM4IvLc2jN9bI+OPCvXZJryTFvfUvSgoakU1PZXtYZkAMG2oyXYqGLzn3g57jxoGiLE2cDSOa0jHYBk8pZBftqGxi6P9RoQO6MmXnphWcuF71YxSBuTaNjnQ51iWEmTowsjhR4c9cxufC8YngeN7CxPps8byUJTRZpere3QGTV/pqxopgyvzOljK/u+HbjcUw0NrLUga2k8Dy0eAtnkpYWYvg+9f54HjdjoZC3VMNknO4EDhp2GFglGGiNekB8aT/cDIOmibBbagbWMAwCA0N6bzDxiNWuAMaU26x4sscoLyWjIMWjABC1ukDbF0PC4Mu6k8dC04SbkiIY5SjKHb6/nVHJ1IYNJQQNTVXvCAjnPSneCLQZ2mqeZ9o6jYfNc/NgBHA2EOId2aJNdtE8RhF52hQXSqodPEfxiNN+17Rl3MAXVi3T5GZ0KGhh7rG7D06qUXreE/TpmtymbeQk4msjrTDjiEEcDJmqOb+5E0IhTUZ+scA0nY61Q54hGP9Jhx26sz2vWI+H8KRFNGCpWupcN8Td9DHqB7qGPNt0NzGwP7a/5ZE46+rkT0CziA7QtM4WgEac81yf6y8U+ryT1xNovRgMbMoUfwMb3cLoUP+W3jxDv3OhoytA/NJPWA7tHtaEK+pee77ZsZtyVBnsc0JXuBDTiYce2nWNo+Nw0Ihn/NMpNXxzZbXtvOaIBL0hanBWPO79Hv6ISLNuzGlvupPtPqqHxYIZLX+LusONkDAP0CQXf4nlnm2/IVZfwcDTMWSBbLBcxAU18Drrtd6FoipLNVWky7Pf7T8O5/I0BOP25WLy5qVYbC/bOPNHMND+gw+9MB/e/P+5rPDuAjqYzA00XtvbTFhySErTHfHd60/CUYU3Ip5sKa/hgLTZUj9QsKxwNTyzZVuAe03U8uCWhkb8eYLtdKBqVTfSDAspPCoR4o98amsznpVJ0gc1g80TDhpd428VKDCzsF3I4p/C5NdF4O5GbWxv//Pl3i+8Apt+sqIxcm9uOf/18afJdV8bhDzgasTWI1vY/f84eNgnnBqgSv7mBHKOBoxHz04MC43Y6GpoZDeymGMk/7YMuaLPr2WjEURsQjxAQm0jC4fUAKTjSrVQCGvGkwFsJftqGJvFLNUjUMgmNV53Uk4mcGw1R3VUW8UpEM40MDvFlq1wbeaCEvETXbDTezojb+ZT8QIPM4eCi8yZ0bFDo4mi8ZUu9RwY0fF0Zi/UnovGKi8nVQTqAJhiTE6WOxZXoN7wKSWi8B/brX7Fb1f0gsiVD69OEK7OwEjMdoCs360LRlRVG4LqdaQVJy5pGhvMfQrZI3vrtp5J3lQVNFTs4mykZTfS2/qRUuqqnCaKlcDzYn0trwyV7KfHQvx67rBqi8n4ARwf5tdm1Umpn9Yne3UjYqVHq9sPea9MXdb5cI3tFoy+MJx3G91ANmleNhC3sV5OuFBtJb+HXQzcsTYd/JicPBe1OpfKcjFNRt/wcFT28we02KljZZakTvUdld33EAYROTk5OTk5OTk5OTk5OTk5OTk5OTk5OTk5OTk5OTk5OTk5OTk5OTk5OTv9+/Q8yFn5kyCoEgwAAAABJRU5ErkJggg==;container=1;" vertex="1" parent="qvDZvUPAAuCRNHzrGXCy-42">
          <mxGeometry x="43.5" y="109" width="133" height="41" as="geometry"/>
        </mxCell>
        <mxCell id="qvDZvUPAAuCRNHzrGXCy-54" value="" style="shape=image;verticalLabelPosition=bottom;labelBackgroundColor=#ffffff;verticalAlign=top;aspect=fixed;imageAspect=0;image=data:image/jpeg,/9j/4AAQSkZJRgABAQAAAQABAAD/2wCEAAkGBxAQEhIQEhMSFRUVFhYVFxUSFxcVFxUVFhUWFhUSFRUYHiggGBolGxUVITEhJiorLi4uFx8zODMtNygtLisBCgoKDg0OGRAQFzciHyY3LTcuNTUtMCstMCs3Ny8tLS4tLS0tLzctNy0tNzEuLS0zLS0tLSsrLy0yLTE1Ny0yLf/AABEIAN4A4wMBIgACEQEDEQH/xAAcAAEAAQUBAQAAAAAAAAAAAAAACAMEBQYHAQL/xABNEAACAgACBQUIEAUCBAcAAAABAgADBBEFBgcSIRMxQVFhInFzgZGSsbIIFBUjMjRCUlNyk6GzwdHTNWJ0g8IkYyVEVPAWFzM2Q4Ki/8QAGgEBAAMBAQEAAAAAAAAAAAAAAAIDBAEFBv/EACsRAQACAQIDBgYDAAAAAAAAAAABAgMRMQQSIRMUImFx0TNBUVKRoSOB8P/aAAwDAQACEQMRAD8A7jERAREQEREBERAREQEREBERAREQEREBERAREQEREBERAREQEREBERAREQEREBERA+XcKCxIAAJJPAADnJMwlusYz7hMx12MUz7QoVjl38p9a22laAOhnUHtAzbLvZqJqtbTFxXE2xzFaq730bONYG+ZX9o/7U9GnX+ZX9o/7U19DKyGY+/ZfJHtJZz3bf6Ov7R/2o92n+jr+0f9qYhZVWs9RnO/5XeeWS92rPo6/tH/AGo923+jr+0f9qY4oeoym0d/ynPLKHTj/Mr+0f8Aanh0+3zK/tH/AGph2MpOZ3v2Xyc55Zs6wt8yv7R/2pd6O02lrbjDcY83EMrdit15dBAPfympMZa4i4oCynIqCwP8y90p8ollONvzRzbEZJ1dLiBE9VcREQEREBERAREQEREBERAREQEREDAa6H3hfCD1XmpVPNr14P8Ap18IPVaaXTZPJ474kenupybslW8rq4AJJAABJJ4AAcSSeqY+t5iNecUVwbKDlyrpWfqnNmHjCkeOYq15rRCMQwGnddsTiGKYRjTT0OBlbZ/NmfgKegAZ9Z6BrzU2vxe+9j/Na5/OVqkAGU3DV3VJbqlvvd0D8USvd3iufB2ZgQM+cDLmyzmvn5Y6dISaXUt6HNMRiFPZbZ6M8pksPrRpSnmxHKDquVXHe6D983W3UnCH4NuIXv8AJuPVB++YvG6i2jjTdVZ/K+dR8vFfvEdrFvnE/wC8zqpaO2kfJxdG5/uUZsvfNbcR4iZt2HxldyLbU28jjNW4jMc3MePRObW6u4nla6LKXQ2MF3iM1C87PvrmpyUMefonRiERVrQZIihVHUqjICVZq1iImI0lyR3lnjX7lvqt6plR3lli37lvqt6plVd0fm64J7PBPZ9E0kREBERAREQEREBERAREQEREBERA1vX1ssMD/uL6rTRKX4TddpHxT+4noac4pM8jj5/kj091OTdnK3mH16OeGp/qF/DslxVYeszG65WE4erP6dfUsmXFPjhyGsse5PePonWNGN7xR4Kv1BOSO3cnvH0Tp+j7jyNHgq/UEln6UdhlC0ps8tjeZSe8zJqkuWvYAjM5dXRLSx5RsuPXLay09cnEoSrO8ssTaMjmRzN6DKVrHrlniPyPollZ6ou7iezwT2fRtJERAREQEREBERAREQEREBERAREQNV2kfE/7if5Tm1RnSNpXxP8AuJ/lOZ1HhPI4/wCJHp7qcm69rMxuuLf6erw6+pZL5GmL1xb/AE9Xh19SyZcMfyQjDW3fuT3j6J0zAv7zR4Kv1BOVu/cnvflOm4N/eqfBV+oJZxMeCEl6XnwzSjvz5LzFoavXaW9jT6ZpQdpKIRl8WGWeI/I+iV3aWtx/P0S2u6Lvgns8E9n0bUREQEREBERAREQEREBERAREQEREDU9pnxP+4n5zl9TTp+034l/cT85yutp5PHfE/r3UZN16jTH62DewoI+RajHvHeT/ACEukaVckdWrfijgq2XPkekdo5/FMlJ5bRKMS0Etwm6avawU2VJXZYldtYCEOQoYLwV1J4cRlmOg5zUtKaNtwrblnEH4NgBCOOsHmB615x98sWQHnm++Ot40lZo6ZdpXDJxbEUj/AO4P3CYrF644ROCcrcepF3V858vuzmjCpR0SpWuZyVSx6kBY+auZldeFxx5uaQ2Aa5WtbWTWiU7wDgZs26eBbeOXNnnzdE2m/gZp2F1XxNgzsUUqem7g2XWKx3XiOU2WqsVolW+bNxQu+wyJy7Pu8Uqz1pGnK5bR9u0t7W/OfbNLewymsdVaQgns8E9n0LWREQEREBERAREQEREBERAREQEREDUtp/xI+ET85yatuE7tp7Ra4uizDtw3xwPzWHFW8RAnFtI6rY/DMUNLsAeDVgspHWMuI7xnncZitNotEaqclZmdVurSorykNF4z6C7zG/SfQ0bjPoLvMb9Ji7K/2z+JV6T9F1XiSAV4FTzqwDKe+DwlBsHhG4nC0eIMvqkTwaNxn0F3mN+k99zsZ9Bd5jfpOxTLG0T+3fE+kw2FXiuGw47Sm96xMuRjmAyXJB1IAo//ADLT3Oxn0F3mN+k89zsZ9Bd5jfpE0yzvE/s8T7ewnnlMtB0bjPoLvMb9J8nRmM+gu8xv0nOyv9s/iXNJ+j5ZpRduIErHRWN+gu8xv0mzam6kYi25LsShSpCG3W4M5BzAy6BmOOcspgva0Ro7FZmXXBPYie00kREBERAREQEREBERAREQEREBERAREQEREBERAROPHSeI92TXy1257aI3OUfdyz+Du55Zdk7DLs2GcenXdCt+bUiIlKZERAREQEREBERAREQEREBERAREsdOkjDYgjgeRs5vqGBe7w656DIU+62J+nu+0f9ZIH2PGIsswOILu7n2wRm7FjlyacOMDqmcAyM+3DSF1elrlS2xRuVcFdgP/AE16AZ9bDsfdZpWpXtsYcnZwZ2I+D1EwJLxEQEREC00viWpovtXLerqscb3NmqFhn2cJyP8A81cf83CeZZ+7OzEZ8DKftav5ieaJfhy0pE81NUL1mdp0R4OmrfbXt3JOU5Tlcsjub3PzZ55eObIdquP+bhPMs/dlFkHu2RkMvbZ4ZcOfqnafa1fzE80TfxGXHXl5qa9FFKWnXSVDRGJa6im1st561Y7vNmygnLsl5PAMuAns8qd2oiInAiIgIiICIiAiIgIiICImna/bQ8Jold1/fL2Ga0oeOXQzn5K/pA3GWGn/AIrifA2+o0jlpjbRpa8nk2roXoFSZkDtZ88z5JhztN0wQyti3ZWBUhlQggjI9HUYGoSRPscPiGI/qD+GkjtJE+xw+IYj+oP4aQKmv+yOzSmNsxi4pKw6ou4ayxG4oXn3h1Rs/wBklmi8YmLbFJYFV13BWVJ3hlnnvGYTaptK0lo/SNmGw71itUrIDVhjmyAnie2Nle0nSWkNIV4bEPWayjsQtYU5qMxxEDuMTW9ftbF0ThTiWrazNgiqCF7o55ZnoHCcN0ttv0raTyQooXoCJvMO+zk5nvAQJLRIkvtL0yTn7dt8W6B5Mpsuqu2rSFFiriyuIpJAYlQtijpZWXIHvEQJIxLJ9Ip7XOJTJ05I2rl8pQu8OPbOBaU28aQc+8UYekfzb1reUkD7oHaf/BmC9s+3N1+V3+Uz32y3uvdzy8U2GRTxW1nTVn/NFPqIg/KU8PtU00hz9tu3Y6oR6JK17W3nVyIiNksInD9R9t7vYtGkUQBiFF9QKhSeHvi5nh2jm6p29WBAI4g8QR0jrkXXsTBa2a24PRlfKYmzLP4KLxdz/KvV2804xp7bxjHYjCUVVJ0NbnY57eBCjvcYEhIkUsRtX005z9tFfqIg/KfNO1TTS/8ANufrKh/xgSviR91H2pabxmLowgNFnKOAxar4KDi7ZqRzAGdU1+1/wuiEHKe+XOCUpU8T/Mx+SvbA26JGHTG2fS95PJvXQvQKkBIHaz5kmYqnafppTve3LD2MEI8mUCWcThOpe3KzfWrSKJungL6gQV7XTPIjtGXencsPelirYjBlYBlZTmCDxBBgVIiIFppfHphqLsQ/waq3sbvIpY+iQ30/pe3G4i3FXEl7GLHsHQo7AMhJSbXHK6IxuXTWAe8WUGRLgbts22e3aYdjvclRXwezLMlvmIOk5cc+idO0tsQ0dXh7XW3Eb6Vs2ZKkEqpPEZdk2HYbSi6Hw5XLNmtZj/Nyrrx8QE2/T/xXE+Bt9RoEK5In2OHxDEf1B/DSR2kifY4fEMR/UH8NIHONvH8Xu8HT+GJ7sH/i9Xg7fVnm3f8AjF/g6fwxPdg/8Xq8Hb6sDtm1XVe/SmETDUFA3Koxaw5BVAOZ4DM8/NNT0NsFwiAHE4i2xukV5Vr4s8zN02h680aHpDuN+2zMVVA5bxHOzHoUZjM9s4Bp/atpfFk5YhqEPMmH7jIfXHdHywOla5bH9GUYPEX08slldbOpazeUlRnkQRI+y/v0pi7sw919mfOGd3zHTnmZYQJUai3F9AVE9GFsHiCuB6JFeSm1DGWr9X9LZ6ryLMDq+yrZjhtK4ZsTfbauVhTcr3QOABzzIPXL3aVshowOEfGYWyw8lkXSzI5qTkWUgDIjObb7Hj+Gv4d/Qs2jan/Ccd4FvSIERpKvZ1p8e4eHxlzcKqX32PVSzp6EkVJ2v2w1epy7pI33KHLqOMbMeMDLxwOW626xXaSxNmJuJO8Tur0InyUA6MhM5s42eX6YdmDclRWQHtIzJJ+Qg6Tl5JpUlnskwaVaJwe4AN+vlGy6Wckkn/vogc6192R4HAaPvxVVl5sqCkbxXI5sqnMAds4jJY7YR/wfG/UX8RJE6BJHZNqXhdH4dNKl3d7cKjneAyqDKLHC5deQHHqnBNadOW4/FXYqwkl2JA+amfcIOwDKSF5dl1XDqeI0eBmOjKsLIyQN12Zag2aYtbNjXRVlyjjiSTzIvbOjazbC6BQz4K23llGYW0gq+XOuYHcnqmZ9jzQi6LZhzviLC3fC1gDyAeWdPgQesQqSpGRBIIPQRwInf/Y7axvdRfgbGJ5DdevP6N8wy94MB5049tAqVNJ49U+CMRbll9ckjyzc/Y7lvdGwDmNDZ+cuUCSEREDE626K9uYLFYUc9tTqp6mI7k+dlIbX0tWzI4KspKsDzgg5EGTfnItqeyU42xsbgioubLlKmIVbCPlq3QxHXwOXRA1DY5tKq0crYLF5ilmLJYBnybHnDAfJPPn0TrOmtftEvhrwuNw5LVWAAON4koQBu88jPpTVbH4Zit2FvQjrQkeJhmD5Zjhg7fo380/pAoSRPscPiGI/qD+Gk4RhtAYy05Jhr2+rW5/KSG2D6GxOEwVyYmmypmvLKLBkSu4g3su+DA5Rt2P/ABi/6lP4SypsFXPS1fZVafuEx22PE8ppjGkHMBkTzKkUjygzN+x6pz0mzfNos+8oIHz7ITEO2lAhJ3UorCjvlmJHjP3TG7GsFgLtIKMaa90IxrS3II9nDIHPgchmQDzmdP227P7sfyeNwq791a7j1jLN0BJUrnzsMzw6c5H/ABejb6SVsqtQjnDoy+kQJhaWSivC3hBUi8jZlu7qj4B5spDOXI5ZwF98YdC90R5JcUaBxlnwMNiG71bn8oEltRf/AG/V/SWeq8ixJXanYSyvQddToyuMLYCjAhgd1uBXnzkYfcPGf9NiPsn/AEgSB9jx/DX8O/oWbPtV/hOO8EfSJr2wHC2VaOdbEdDyzHJ1KnLJeORmx7T6mfRWNVVLMaiAqgkk5jgAOeBEWSAwOhWxWqS0oCXCNaoHSUxDWEDvgEeOcP8AcPGf9NiPsn/SSk2T1MuicGjqykIwKuCCPfH5wYES52rZBtRw+FoGBxrFFQnkrciV3Sc9xsubLoPbPjaZsfuFr4vRycojks1AI3kJ4k15/CXPo5xOS4jROJrJV6LlI6GRh6RAkHtO190Vfo3FUVYquyyxAqrXmczvKePDhzSN8yQ0DjOTe/2vcK0GbOUYKBzZkkdsxsCVWomCGK0Bh6DzWYZq/KWUSLmPwj0WWU2Aq9bFGB6CpyMlfsnTLRGBH+1n5XY/nNV2ubLjjycbgwBiMu7rJAFwHMQTwD9/n4QNP2E68YfBG3BYl1rrtblEsY5KH3QrKx6AQq8eydc1q1/0fgcO93L02Punk66nV2dugAKTkM+mRT0norEYZil9VlTA5ZOpXyZ88tFUk5AEnqHGBWx2Ka6yy5vhWOzt9ZmLH7zO4exw0EypiccwyD7tNefSFJaxh2Z7o8Rmhaj7MMdpF1L1vRh8+6tsG6SOkVqeLHt5pJ3RGjasJTXh6V3a61CqOwdJPSe2BeREQEREDxgDzyn7XT5i+QSrEDwADmmv67624fReHa+1hvZEV1j4Vj9AA6uszPWqSpAO6SCAw45HLgcjzyPO0nZlpflXxXKvjlPHP/5VHzeT5sh/L5IHLtI418RbZe5zex2dj2sST6Z2b2Nmi23sZiyO5ySlT1nMu+XeyTyzQNS9nWO0lbuitqalOT22qQFy51UHIs3ZJP6s6Bo0fh68LQMkQc552Y/Cdu0mBlJTsoRvhKp74B9MqRAoLg6hzVoO8oH5SsABzT2ICIiAiIgJQx2Mrore61giICzMeZVHOT2SvNa2lfwrH/09nqwM9g8bVcoep0dTxDIQw8olVq1POAe+M5CjBaSvoOdN1tZ663ZPVImUfXXSpXcOOxeXhrPTnnA7jt61kppwJwKuOWuK9wvOtasGJYdGZAEjlWhYhQMySAAOkngBPbrmclnZmY85Ykk98mdX2MbOrcRdXpDEoVorO9WrDjc4+C2R+QDxz6SIHddVdH+1cHhcP01U1oe+qAN9+cykRApX4auzg6I31lB9MoVaKwyHNaaVPWEUflLyIAREQEREBERAREQEREBERAREQEREBERAREQEpYnDpajV2KGRgQysMwQecESrEDQNLbHdD3kkVPST9A5UeJTmv3TDLsE0bnxxGMI6t6r08nOsRA0vQWy3RGDYOmH5RxxDXnlCD1gHgPJNzAy4CexAREQEREBERAREQP/Z;container=1;" vertex="1" parent="1">
          <mxGeometry x="1121" y="338.5" width="66" height="65" as="geometry"/>
        </mxCell>
        <mxCell id="qvDZvUPAAuCRNHzrGXCy-59" value="&lt;h1&gt;MemCache&lt;/h1&gt;&lt;p&gt;High performance key-value store in memory&lt;br&gt;&lt;/p&gt;&lt;p&gt; Millions of read/write per second&lt;/p&gt;&lt;div&gt;Sensitive to network condition&lt;/div&gt;&lt;div&gt;No cross region operation&lt;br&gt;&lt;/div&gt;" style="text;html=1;strokeColor=none;fillColor=none;spacing=5;spacingTop=-20;whiteSpace=wrap;overflow=hidden;rounded=0;" vertex="1" parent="1">
          <mxGeometry x="1390" y="360" width="310" height="160" as="geometry"/>
        </mxCell>
        <mxCell id="qvDZvUPAAuCRNHzrGXCy-75" value="" style="rounded=0;whiteSpace=wrap;html=1;container=1;" vertex="1" parent="1">
          <mxGeometry x="1043" y="530" width="200" height="230" as="geometry"/>
        </mxCell>
        <mxCell id="qvDZvUPAAuCRNHzrGXCy-62" value="User C" style="rounded=1;whiteSpace=wrap;html=1;" vertex="1" parent="qvDZvUPAAuCRNHzrGXCy-75">
          <mxGeometry x="9.56976744186045" y="12.5" width="85.81395348837208" height="45" as="geometry"/>
        </mxCell>
        <mxCell id="qvDZvUPAAuCRNHzrGXCy-63" value="Django" style="rounded=1;whiteSpace=wrap;html=1;" vertex="1" parent="qvDZvUPAAuCRNHzrGXCy-75">
          <mxGeometry x="9.56976744186045" y="92.5" width="85.81395348837208" height="45" as="geometry"/>
        </mxCell>
        <mxCell id="qvDZvUPAAuCRNHzrGXCy-73" value="Comment" style="edgeStyle=orthogonalEdgeStyle;rounded=0;orthogonalLoop=1;jettySize=auto;html=1;exitX=0.5;exitY=1;exitDx=0;exitDy=0;entryX=0.5;entryY=0;entryDx=0;entryDy=0;" edge="1" parent="qvDZvUPAAuCRNHzrGXCy-75" source="qvDZvUPAAuCRNHzrGXCy-62" target="qvDZvUPAAuCRNHzrGXCy-63">
          <mxGeometry x="-0.1429" relative="1" as="geometry">
            <mxPoint as="offset"/>
          </mxGeometry>
        </mxCell>
        <mxCell id="qvDZvUPAAuCRNHzrGXCy-67" value="memcache" style="rounded=1;whiteSpace=wrap;html=1;" vertex="1" parent="qvDZvUPAAuCRNHzrGXCy-75">
          <mxGeometry x="9.535714285714334" y="152.5" width="85.81395348837208" height="45" as="geometry"/>
        </mxCell>
        <mxCell id="qvDZvUPAAuCRNHzrGXCy-72" value="Cache Invalidate" style="edgeStyle=orthogonalEdgeStyle;rounded=0;orthogonalLoop=1;jettySize=auto;html=1;exitX=0.5;exitY=1;exitDx=0;exitDy=0;entryX=0.5;entryY=1;entryDx=0;entryDy=0;" edge="1" parent="qvDZvUPAAuCRNHzrGXCy-75" source="qvDZvUPAAuCRNHzrGXCy-68" target="qvDZvUPAAuCRNHzrGXCy-67">
          <mxGeometry relative="1" as="geometry"/>
        </mxCell>
        <mxCell id="qvDZvUPAAuCRNHzrGXCy-68" value="PostgreSQL" style="rounded=1;whiteSpace=wrap;html=1;" vertex="1" parent="qvDZvUPAAuCRNHzrGXCy-75">
          <mxGeometry x="104.91860465116281" y="152.5" width="85.81395348837208" height="45" as="geometry"/>
        </mxCell>
        <mxCell id="qvDZvUPAAuCRNHzrGXCy-69" value="Insert" style="edgeStyle=orthogonalEdgeStyle;rounded=0;orthogonalLoop=1;jettySize=auto;html=1;exitX=1;exitY=0.5;exitDx=0;exitDy=0;" edge="1" parent="qvDZvUPAAuCRNHzrGXCy-75" source="qvDZvUPAAuCRNHzrGXCy-63" target="qvDZvUPAAuCRNHzrGXCy-68">
          <mxGeometry relative="1" as="geometry"/>
        </mxCell>
        <mxCell id="qvDZvUPAAuCRNHzrGXCy-76" value="" style="rounded=0;whiteSpace=wrap;html=1;container=1;" vertex="1" parent="1">
          <mxGeometry x="1273" y="530" width="200" height="230" as="geometry"/>
        </mxCell>
        <mxCell id="qvDZvUPAAuCRNHzrGXCy-77" value="User R" style="rounded=1;whiteSpace=wrap;html=1;" vertex="1" parent="qvDZvUPAAuCRNHzrGXCy-76">
          <mxGeometry x="9.56976744186045" y="12.5" width="85.81395348837208" height="45" as="geometry"/>
        </mxCell>
        <mxCell id="qvDZvUPAAuCRNHzrGXCy-78" value="Django" style="rounded=1;whiteSpace=wrap;html=1;" vertex="1" parent="qvDZvUPAAuCRNHzrGXCy-76">
          <mxGeometry x="9.56976744186045" y="92.5" width="85.81395348837208" height="45" as="geometry"/>
        </mxCell>
        <mxCell id="qvDZvUPAAuCRNHzrGXCy-79" value="Fetch" style="edgeStyle=orthogonalEdgeStyle;rounded=0;orthogonalLoop=1;jettySize=auto;html=1;exitX=0.5;exitY=1;exitDx=0;exitDy=0;entryX=0.5;entryY=0;entryDx=0;entryDy=0;" edge="1" parent="qvDZvUPAAuCRNHzrGXCy-76" source="qvDZvUPAAuCRNHzrGXCy-77" target="qvDZvUPAAuCRNHzrGXCy-78">
          <mxGeometry x="-0.1429" relative="1" as="geometry">
            <mxPoint as="offset"/>
          </mxGeometry>
        </mxCell>
        <mxCell id="qvDZvUPAAuCRNHzrGXCy-80" value="memcache" style="rounded=1;whiteSpace=wrap;html=1;" vertex="1" parent="qvDZvUPAAuCRNHzrGXCy-76">
          <mxGeometry x="9.535714285714334" y="152.5" width="85.81395348837208" height="45" as="geometry"/>
        </mxCell>
        <mxCell id="qvDZvUPAAuCRNHzrGXCy-81" value="Cache Invalidate" style="edgeStyle=orthogonalEdgeStyle;rounded=0;orthogonalLoop=1;jettySize=auto;html=1;exitX=0.5;exitY=1;exitDx=0;exitDy=0;entryX=0.5;entryY=1;entryDx=0;entryDy=0;" edge="1" parent="qvDZvUPAAuCRNHzrGXCy-76" source="qvDZvUPAAuCRNHzrGXCy-82" target="qvDZvUPAAuCRNHzrGXCy-80">
          <mxGeometry relative="1" as="geometry"/>
        </mxCell>
        <mxCell id="qvDZvUPAAuCRNHzrGXCy-86" value="Get" style="edgeStyle=orthogonalEdgeStyle;rounded=0;orthogonalLoop=1;jettySize=auto;html=1;exitX=0.5;exitY=0;exitDx=0;exitDy=0;entryX=1;entryY=0.5;entryDx=0;entryDy=0;" edge="1" parent="qvDZvUPAAuCRNHzrGXCy-76" source="qvDZvUPAAuCRNHzrGXCy-82" target="qvDZvUPAAuCRNHzrGXCy-78">
          <mxGeometry relative="1" as="geometry"/>
        </mxCell>
        <mxCell id="qvDZvUPAAuCRNHzrGXCy-82" value="PostgreSQL" style="rounded=1;whiteSpace=wrap;html=1;" vertex="1" parent="qvDZvUPAAuCRNHzrGXCy-76">
          <mxGeometry x="104.91860465116281" y="152.5" width="85.81395348837208" height="45" as="geometry"/>
        </mxCell>
        <mxCell id="qvDZvUPAAuCRNHzrGXCy-84" value="Replication" style="edgeStyle=orthogonalEdgeStyle;rounded=0;orthogonalLoop=1;jettySize=auto;html=1;exitX=1;exitY=0.5;exitDx=0;exitDy=0;entryX=1;entryY=0.5;entryDx=0;entryDy=0;" edge="1" parent="1" source="qvDZvUPAAuCRNHzrGXCy-68" target="qvDZvUPAAuCRNHzrGXCy-82">
          <mxGeometry relative="1" as="geometry">
            <Array as="points">
              <mxPoint x="1234" y="780"/>
              <mxPoint x="1484" y="780"/>
              <mxPoint x="1484" y="705"/>
            </Array>
          </mxGeometry>
        </mxCell>
        <mxCell id="qvDZvUPAAuCRNHzrGXCy-87" value="Heavy Load on PostGreSQL" style="rounded=0;whiteSpace=wrap;html=1;fillColor=#FF250D;" vertex="1" parent="1">
          <mxGeometry x="1493" y="720" width="120" height="40" as="geometry"/>
        </mxCell>
        <mxCell id="qvDZvUPAAuCRNHzrGXCy-105" value="&lt;div align=&quot;left&quot;&gt;&lt;b&gt;&amp;nbsp;memCache Lease&lt;/b&gt;&lt;/div&gt;&lt;div align=&quot;left&quot;&gt;Several call from DCs to unreplicated memcache, one actual call to the DB&lt;br&gt;&lt;/div&gt;" style="rounded=0;whiteSpace=wrap;html=1;fillColor=#FFFFFF;align=left;" vertex="1" parent="1">
          <mxGeometry x="1043" y="790" width="221" height="80" as="geometry"/>
        </mxCell>
        <mxCell id="qvDZvUPAAuCRNHzrGXCy-106" value="&lt;b&gt;Scale Up Memory&lt;/b&gt;&lt;div align=&quot;left&quot;&gt;Optimize memory&lt;/div&gt;&lt;div align=&quot;left&quot;&gt;Share more between process&lt;br&gt;&lt;/div&gt;" style="rounded=0;whiteSpace=wrap;html=1;fillColor=#FFFFFF;align=left;" vertex="1" parent="1">
          <mxGeometry x="734.5" y="600" width="180" height="80" as="geometry"/>
        </mxCell>
        <mxCell id="qvDZvUPAAuCRNHzrGXCy-109" value="&lt;b&gt;Scale Up Network Latency&lt;/b&gt;&lt;br&gt;Synchronous Processing (Web Asynchronous Processing)" style="rounded=0;whiteSpace=wrap;html=1;fillColor=#FFFFFF;align=left;" vertex="1" parent="1">
          <mxGeometry x="734.5" y="690" width="180" height="80" as="geometry"/>
        </mxCell>
        <mxCell id="qvDZvUPAAuCRNHzrGXCy-110" value="" style="rounded=0;whiteSpace=wrap;html=1;fillColor=#FFFFFF;container=1;" vertex="1" parent="1">
          <mxGeometry x="325.5" y="710" width="390" height="150" as="geometry"/>
        </mxCell>
        <mxCell id="qvDZvUPAAuCRNHzrGXCy-122" style="edgeStyle=orthogonalEdgeStyle;rounded=0;orthogonalLoop=1;jettySize=auto;html=1;entryX=0;entryY=0.5;entryDx=0;entryDy=0;" edge="1" parent="qvDZvUPAAuCRNHzrGXCy-110" source="qvDZvUPAAuCRNHzrGXCy-111" target="qvDZvUPAAuCRNHzrGXCy-115">
          <mxGeometry relative="1" as="geometry"/>
        </mxCell>
        <mxCell id="qvDZvUPAAuCRNHzrGXCy-124" style="edgeStyle=orthogonalEdgeStyle;rounded=0;orthogonalLoop=1;jettySize=auto;html=1;exitX=1;exitY=0.5;exitDx=0;exitDy=0;entryX=0;entryY=0.5;entryDx=0;entryDy=0;" edge="1" parent="qvDZvUPAAuCRNHzrGXCy-110" source="qvDZvUPAAuCRNHzrGXCy-111" target="qvDZvUPAAuCRNHzrGXCy-116">
          <mxGeometry relative="1" as="geometry"/>
        </mxCell>
        <mxCell id="qvDZvUPAAuCRNHzrGXCy-125" style="edgeStyle=orthogonalEdgeStyle;rounded=0;orthogonalLoop=1;jettySize=auto;html=1;exitX=1;exitY=0.5;exitDx=0;exitDy=0;entryX=0;entryY=0.5;entryDx=0;entryDy=0;" edge="1" parent="qvDZvUPAAuCRNHzrGXCy-110" source="qvDZvUPAAuCRNHzrGXCy-111" target="qvDZvUPAAuCRNHzrGXCy-121">
          <mxGeometry relative="1" as="geometry"/>
        </mxCell>
        <mxCell id="qvDZvUPAAuCRNHzrGXCy-111" value="Django" style="rounded=0;whiteSpace=wrap;html=1;fillColor=#FFFFFF;" vertex="1" parent="qvDZvUPAAuCRNHzrGXCy-110">
          <mxGeometry x="34.411764705882355" y="54" width="103.23529411764706" height="28" as="geometry"/>
        </mxCell>
        <mxCell id="qvDZvUPAAuCRNHzrGXCy-115" value="Feed" style="rounded=0;whiteSpace=wrap;html=1;fillColor=#FFFFFF;" vertex="1" parent="qvDZvUPAAuCRNHzrGXCy-110">
          <mxGeometry x="183.5294117647059" y="20" width="97.5" height="28" as="geometry"/>
        </mxCell>
        <mxCell id="qvDZvUPAAuCRNHzrGXCy-116" value="Stories" style="rounded=0;whiteSpace=wrap;html=1;fillColor=#FFFFFF;" vertex="1" parent="qvDZvUPAAuCRNHzrGXCy-110">
          <mxGeometry x="183.5294117647059" y="51" width="97.5" height="28" as="geometry"/>
        </mxCell>
        <mxCell id="qvDZvUPAAuCRNHzrGXCy-121" value="&lt;div&gt;Suggested Users&lt;/div&gt;" style="rounded=0;whiteSpace=wrap;html=1;fillColor=#FFFFFF;" vertex="1" parent="qvDZvUPAAuCRNHzrGXCy-110">
          <mxGeometry x="183.5294117647059" y="82" width="97.5" height="38" as="geometry"/>
        </mxCell>
        <mxCell id="qvDZvUPAAuCRNHzrGXCy-127" value="Asynchronous" style="text;html=1;strokeColor=none;fillColor=none;align=center;verticalAlign=middle;whiteSpace=wrap;rounded=0;" vertex="1" parent="qvDZvUPAAuCRNHzrGXCy-110">
          <mxGeometry x="46" y="14" width="40" height="20" as="geometry"/>
        </mxCell>
        <mxCell id="qvDZvUPAAuCRNHzrGXCy-133" value="" style="shape=image;verticalLabelPosition=bottom;labelBackgroundColor=#ffffff;verticalAlign=top;aspect=fixed;imageAspect=0;image=https://miro.medium.com/max/768/1*GeYYgxYKU8fv1fnbov1GKw.png;" vertex="1" parent="1">
          <mxGeometry x="764.5" y="780" width="120" height="90" as="geometry"/>
        </mxCell>
        <mxCell id="qvDZvUPAAuCRNHzrGXCy-134" value="A canary deployment / canary&lt;br&gt; test allows you to gradually release new features to a subset of your &lt;br&gt;users while still serving your current branch to the rest of your users.&lt;br&gt; It basically allows you to test things in parallel without having to &lt;br&gt;make major merges/deployments." style="rounded=0;whiteSpace=wrap;html=1;fillColor=#FFFFFF;" vertex="1" parent="1">
          <mxGeometry x="335.5" y="600" width="380" height="90" as="geometry"/>
        </mxCell>
        <mxCell id="qvDZvUPAAuCRNHzrGXCy-142" value="REQUEST" style="edgeStyle=orthogonalEdgeStyle;rounded=0;orthogonalLoop=1;jettySize=auto;html=1;exitX=0.5;exitY=0;exitDx=0;exitDy=0;entryX=0.5;entryY=1;entryDx=0;entryDy=0;" edge="1" parent="1" source="qvDZvUPAAuCRNHzrGXCy-138" target="qvDZvUPAAuCRNHzrGXCy-8">
          <mxGeometry relative="1" as="geometry"/>
        </mxCell>
        <mxCell id="qvDZvUPAAuCRNHzrGXCy-138" value="&lt;div&gt;Devices&lt;/div&gt;" style="whiteSpace=wrap;html=1;aspect=fixed;container=1;" vertex="1" parent="1">
          <mxGeometry x="307" y="420" width="156" height="130" as="geometry">
            <mxRectangle x="30" y="150" width="80" height="20" as="alternateBounds"/>
          </mxGeometry>
        </mxCell>
        <mxCell id="qvDZvUPAAuCRNHzrGXCy-139" value="" style="aspect=fixed;pointerEvents=1;shadow=0;dashed=0;html=1;strokeColor=none;labelPosition=center;verticalLabelPosition=bottom;verticalAlign=top;align=center;fillColor=#00188D;shape=mxgraph.mscae.enterprise.android_phone" vertex="1" parent="qvDZvUPAAuCRNHzrGXCy-138">
          <mxGeometry x="115.25373134328356" y="92.69058295964126" width="17.462686567164184" height="29.104477611940297" as="geometry"/>
        </mxCell>
        <mxCell id="qvDZvUPAAuCRNHzrGXCy-140" value="Client" style="shape=umlActor;verticalLabelPosition=bottom;labelBackgroundColor=#ffffff;verticalAlign=top;html=1;outlineConnect=0;" vertex="1" parent="qvDZvUPAAuCRNHzrGXCy-138">
          <mxGeometry x="9.533333333333333" y="17.333333333333336" width="26" height="46.8" as="geometry"/>
        </mxCell>
        <mxCell id="qvDZvUPAAuCRNHzrGXCy-150" style="edgeStyle=orthogonalEdgeStyle;rounded=0;orthogonalLoop=1;jettySize=auto;html=1;exitX=1;exitY=0.5;exitDx=0;exitDy=0;entryX=0;entryY=0.5;entryDx=0;entryDy=0;entryPerimeter=0;" edge="1" parent="1" source="qvDZvUPAAuCRNHzrGXCy-143" target="qvDZvUPAAuCRNHzrGXCy-146">
          <mxGeometry relative="1" as="geometry"/>
        </mxCell>
        <mxCell id="qvDZvUPAAuCRNHzrGXCy-143" value="&lt;div&gt;Devices&lt;/div&gt;" style="whiteSpace=wrap;html=1;aspect=fixed;container=1;" vertex="1" parent="1">
          <mxGeometry x="707" y="352" width="156" height="130" as="geometry">
            <mxRectangle x="30" y="150" width="80" height="20" as="alternateBounds"/>
          </mxGeometry>
        </mxCell>
        <mxCell id="qvDZvUPAAuCRNHzrGXCy-144" value="" style="aspect=fixed;pointerEvents=1;shadow=0;dashed=0;html=1;strokeColor=none;labelPosition=center;verticalLabelPosition=bottom;verticalAlign=top;align=center;fillColor=#00188D;shape=mxgraph.mscae.enterprise.android_phone" vertex="1" parent="qvDZvUPAAuCRNHzrGXCy-143">
          <mxGeometry x="115.25373134328356" y="92.69058295964126" width="17.462686567164184" height="29.104477611940297" as="geometry"/>
        </mxCell>
        <mxCell id="qvDZvUPAAuCRNHzrGXCy-145" value="Client" style="shape=umlActor;verticalLabelPosition=bottom;labelBackgroundColor=#ffffff;verticalAlign=top;html=1;outlineConnect=0;" vertex="1" parent="qvDZvUPAAuCRNHzrGXCy-143">
          <mxGeometry x="9.533333333333333" y="17.333333333333336" width="26" height="46.8" as="geometry"/>
        </mxCell>
        <mxCell id="qvDZvUPAAuCRNHzrGXCy-152" style="edgeStyle=orthogonalEdgeStyle;rounded=0;orthogonalLoop=1;jettySize=auto;html=1;entryX=0;entryY=0.5;entryDx=0;entryDy=0;" edge="1" parent="1" source="qvDZvUPAAuCRNHzrGXCy-146" target="qvDZvUPAAuCRNHzrGXCy-42">
          <mxGeometry relative="1" as="geometry"/>
        </mxCell>
        <mxCell id="qvDZvUPAAuCRNHzrGXCy-146" value="&lt;div&gt;&lt;b&gt;Load Balancer&lt;/b&gt;&lt;/div&gt;" style="outlineConnect=0;dashed=0;verticalLabelPosition=bottom;verticalAlign=top;align=center;html=1;shape=mxgraph.aws3.hdfs_cluster;fillColor=#F58534;gradientColor=none;" vertex="1" parent="1">
          <mxGeometry x="910" y="389" width="70" height="56" as="geometry"/>
        </mxCell>
        <mxCell id="qvDZvUPAAuCRNHzrGXCy-148" value="&lt;b&gt;&lt;font style=&quot;font-size: 24px&quot;&gt;Single Region&lt;/font&gt;&lt;br&gt;&lt;/b&gt;" style="text;html=1;strokeColor=none;fillColor=none;align=center;verticalAlign=middle;whiteSpace=wrap;rounded=0;" vertex="1" parent="1">
          <mxGeometry x="1200" y="250" width="120" height="20" as="geometry"/>
        </mxCell>
        <mxCell id="qvDZvUPAAuCRNHzrGXCy-160" value="" style="shape=link;html=1;strokeColor=#FF0F0F;" edge="1" parent="1">
          <mxGeometry width="50" height="50" relative="1" as="geometry">
            <mxPoint x="930" y="560" as="sourcePoint"/>
            <mxPoint x="40" y="560" as="targetPoint"/>
          </mxGeometry>
        </mxCell>
        <mxCell id="qvDZvUPAAuCRNHzrGXCy-161" value="" style="shape=link;html=1;strokeColor=#FF0F0F;" edge="1" parent="1">
          <mxGeometry width="50" height="50" relative="1" as="geometry">
            <mxPoint x="640" y="560" as="sourcePoint"/>
            <mxPoint x="640" y="120" as="targetPoint"/>
          </mxGeometry>
        </mxCell>
        <mxCell id="qvDZvUPAAuCRNHzrGXCy-162" value="" style="shape=link;html=1;strokeColor=#FF0F0F;" edge="1" parent="1">
          <mxGeometry width="50" height="50" relative="1" as="geometry">
            <mxPoint x="930" y="1000" as="sourcePoint"/>
            <mxPoint x="930" y="560" as="targetPoint"/>
          </mxGeometry>
        </mxCell>
        <mxCell id="qvDZvUPAAuCRNHzrGXCy-168" value="&lt;font style=&quot;font-size: 24px&quot;&gt;Individual DB Infra&lt;br&gt;&lt;/font&gt;" style="rounded=0;whiteSpace=wrap;html=1;fillColor=#FF0303;" vertex="1" parent="1">
          <mxGeometry x="1390" y="287" width="120" height="60" as="geometry"/>
        </mxCell>
        <mxCell id="qvDZvUPAAuCRNHzrGXCy-169" value="&lt;font style=&quot;font-size: 24px&quot;&gt;Web Request&lt;br&gt;&lt;/font&gt;" style="rounded=0;whiteSpace=wrap;html=1;fillColor=#FF0303;" vertex="1" parent="1">
          <mxGeometry x="470" y="190" width="130" height="70" as="geometry"/>
        </mxCell>
        <mxCell id="qvDZvUPAAuCRNHzrGXCy-170" value="&lt;font style=&quot;font-size: 24px&quot;&gt;Scaling Strategy&lt;br&gt;&lt;/font&gt;" style="rounded=0;whiteSpace=wrap;html=1;fillColor=#FF0303;" vertex="1" parent="1">
          <mxGeometry x="642" y="880" width="130" height="70" as="geometry"/>
        </mxCell>
      </root>
    </mxGraphModel>
  </diagram>
</mxfile>
